#N canvas 120 99 984 637 10;
#X declare -path .;
#X declare -path rj;
#X declare -path percsamples;
#X declare -path cpmlibs;
#X declare -path fieldrecordings;
#X declare -path rj;
#X declare -path .;
#X declare -path rj;
#X declare -path .;
#X declare -path rj;
#X declare -path .;
#X declare -path rj;
#X declare -path .;
#X declare -path rj;
#X declare -path rj;
#X declare -path rj;
#X declare -path rj;
#X declare -path rj;
#X obj 35 541 declare -path .;
#X obj 35 568 declare -path rj;
#X obj 785 223 r tapdistance;
#X msg 806 550 0;
#X msg 837 550 0.1;
#X msg 870 550 0.5;
#X msg 905 550 1;
#X msg 941 550 1.1;
#X obj 859 583 s tapdistance;
#X obj 693 221 r touchended;
#X obj 658 201 r touchvelocity;
#N canvas 727 49 477 425 clustermetro 0;
#X obj 303 241 bng 15 250 50 0 empty empty empty 17 7 0 10 -262144
-1 -1;
#X obj 247 264 + 1;
#X obj 211 109 t b b b b;
#X obj 201 15 bng 15 250 50 0 empty empty empty 17 7 0 10 -262144 -1
-1;
#X floatatom 256 287 5 0 0 0 - - -;
#X obj 247 244 random 6;
#X obj 67 123 delay 1000;
#X obj 66 97 random 8000;
#X obj 192 324 c_multimetro 16 200;
#X obj 192 298 tgl 15 0 empty empty empty 17 7 0 10 -262144 -1 -1 1
1;
#X obj 91 319 delay 10;
#X msg 149 325 stop;
#X floatatom 89 252 5 0 0 0 - - -;
#X obj 89 276 sel 15;
#X obj 83 299 bng 15 250 50 0 empty empty empty 17 7 0 10 -262144 -1
-1;
#X obj 102 297 t b;
#X msg 192 277 1;
#X obj 223 13 loadbang;
#X obj 192 346 outlet;
#X obj 157 14 inlet;
#N canvas 1012 38 445 814 createclusterrhythm 0;
#X obj 78 50 inlet;
#X obj 52 778 outlet;
#X obj 167 167 random 1000;
#X obj 167 187 + 50;
#X obj 68 140 t b b b b b b b b;
#X obj 148 211 random 1000;
#X obj 148 231 + 50;
#X obj 143 257 random 1000;
#X obj 143 277 + 50;
#X obj 122 296 random 1000;
#X obj 122 316 + 50;
#X obj 113 338 random 1000;
#X obj 113 358 + 50;
#X obj 104 382 random 1000;
#X obj 104 402 + 50;
#X obj 94 424 random 1000;
#X obj 94 444 + 50;
#X obj 93 478 list append;
#X obj 92 500 list append;
#X obj 95 522 list append;
#X obj 96 544 list append;
#X obj 94 567 list append;
#X obj 95 592 list append;
#X connect 0 0 4 0;
#X connect 2 0 3 0;
#X connect 3 0 22 1;
#X connect 4 1 15 0;
#X connect 4 2 13 0;
#X connect 4 3 11 0;
#X connect 4 4 9 0;
#X connect 4 5 7 0;
#X connect 4 6 5 0;
#X connect 4 7 2 0;
#X connect 5 0 6 0;
#X connect 6 0 21 1;
#X connect 7 0 8 0;
#X connect 8 0 20 1;
#X connect 9 0 10 0;
#X connect 10 0 19 1;
#X connect 11 0 12 0;
#X connect 12 0 18 1;
#X connect 13 0 14 0;
#X connect 14 0 17 1;
#X connect 15 0 16 0;
#X connect 16 0 17 0;
#X connect 17 0 18 0;
#X connect 18 0 19 0;
#X connect 19 0 20 0;
#X connect 20 0 21 0;
#X connect 21 0 22 0;
#X connect 22 0 1 0;
#X restore 303 262 pd createclusterrhythm;
#X obj 348 352 print rhythm:;
#X obj 46 124 bng 15 250 50 0 empty empty empty 17 7 0 10 -262144 -1
-1;
#X obj 345 321 spigot;
#X obj 374 293 tgl 15 0 empty empty empty 17 7 0 10 -262144 -1 -1 0
1;
#X connect 0 0 20 0;
#X connect 1 0 8 1;
#X connect 1 0 4 0;
#X connect 2 0 7 0;
#X connect 2 1 16 0;
#X connect 2 2 5 0;
#X connect 2 3 0 0;
#X connect 3 0 2 0;
#X connect 5 0 1 0;
#X connect 5 0 13 1;
#X connect 6 0 2 0;
#X connect 6 0 22 0;
#X connect 7 0 6 1;
#X connect 8 0 12 0;
#X connect 8 0 18 0;
#X connect 9 0 8 0;
#X connect 10 0 11 0;
#X connect 10 0 6 0;
#X connect 11 0 8 0;
#X connect 12 0 13 0;
#X connect 13 0 14 0;
#X connect 13 0 15 0;
#X connect 15 0 10 0;
#X connect 16 0 9 0;
#X connect 17 0 2 0;
#X connect 19 0 2 0;
#X connect 20 0 8 2;
#X connect 20 0 23 0;
#X connect 23 0 21 0;
#X connect 24 0 23 1;
#X restore 132 193 pd clustermetro;
#X obj 112 195 bng 15 250 50 0 empty empty empty 17 7 0 10 -262144
-1 -1;
#N canvas 326 601 450 300 sel01 0;
#X obj 122 3 inlet;
#X obj 247 31 sel 0;
#X msg 225 58 0;
#X msg 275 57 1;
#X obj 49 133 spigot;
#X obj 240 5 inlet;
#X obj 47 203 outlet;
#X obj 165 105 tgl 15 0 empty empty empty 17 7 0 10 -262144 -1 -1 0
1;
#X connect 0 0 4 0;
#X connect 1 0 2 0;
#X connect 1 1 3 0;
#X connect 2 0 7 0;
#X connect 3 0 7 0;
#X connect 4 0 6 0;
#X connect 5 0 1 0;
#X connect 7 0 4 1;
#X coords 0 -1 1 1 85 25 1 100 100;
#X restore 155 217 pd sel01;
#N canvas 322 467 806 369 cymbals 0;
#X obj 170 21 inlet;
#X obj 337 311 outlet~;
#X obj 465 310 outlet~;
#X obj 174 167 bng 15 250 50 0 empty empty empty 17 7 0 10 -262144
-1 -1;
#X obj 170 41 t b;
#X text 170 0 note;
#N canvas 852 386 450 300 counter 0;
#X obj 28 19 inlet;
#X obj 98 73 + 1;
#X floatatom 45 97 5 0 0 0 - - -;
#X msg 95 119 set \$1;
#X obj 95 96 % 4;
#X obj 33 168 sel 0 1 2 3;
#X obj 22 245 outlet;
#X obj 58 242 outlet;
#X obj 102 239 outlet;
#X obj 147 238 outlet;
#X connect 0 0 2 0;
#X connect 1 0 4 0;
#X connect 2 0 1 0;
#X connect 2 0 5 0;
#X connect 3 0 2 0;
#X connect 4 0 3 0;
#X connect 5 0 6 0;
#X connect 5 1 7 0;
#X connect 5 2 8 0;
#X connect 5 3 9 0;
#X restore 170 62 pd counter;
#X obj 295 168 bng 15 250 50 0 empty empty empty 17 7 0 10 -262144
-1 -1;
#X obj 452 160 bng 15 250 50 0 empty empty empty 17 7 0 10 -262144
-1 -1;
#X obj 423 28 notein;
#N canvas 1026 543 488 330 note_distribute 0;
#X obj 89 26 inlet;
#X obj 153 27 inlet;
#X obj 45 258 outlet;
#X obj 103 50 pack f f;
#X obj 103 85 stripnote;
#X obj 127 257 outlet;
#X obj 244 260 outlet;
#X obj 313 257 outlet;
#X obj 248 106 + 1;
#X floatatom 195 130 5 0 0 0 - - -;
#X msg 245 152 set \$1;
#X obj 245 129 % 4;
#X obj 195 102 t b;
#X obj 84 210 route 0 1 2 3;
#X obj 98 145 pack f f;
#X obj 123 180 list prepend;
#N canvas 326 601 450 300 sel01 0;
#X obj 122 3 inlet;
#X obj 247 31 sel 0;
#X msg 225 58 0;
#X msg 275 57 1;
#X obj 49 133 spigot;
#X obj 240 5 inlet;
#X obj 47 203 outlet;
#X obj 165 105 tgl 15 0 empty empty empty 17 7 0 10 -262144 -1 -1 0
1;
#X connect 0 0 4 0;
#X connect 1 0 2 0;
#X connect 1 1 3 0;
#X connect 2 0 7 0;
#X connect 3 0 7 0;
#X connect 4 0 6 0;
#X connect 5 0 1 0;
#X connect 7 0 4 1;
#X coords 0 -1 1 1 85 25 1 100 100;
#X restore 231 48 pd sel01;
#X obj 331 23 inlet;
#X obj 340 91 loadbang;
#X msg 335 121 0;
#X connect 0 0 3 0;
#X connect 1 0 3 1;
#X connect 3 0 16 0;
#X connect 4 0 14 0;
#X connect 4 1 12 0;
#X connect 4 1 14 1;
#X connect 8 0 11 0;
#X connect 9 0 8 0;
#X connect 9 0 15 1;
#X connect 10 0 9 0;
#X connect 11 0 10 0;
#X connect 12 0 9 0;
#X connect 13 0 2 0;
#X connect 13 1 5 0;
#X connect 13 2 6 0;
#X connect 13 3 7 0;
#X connect 14 0 15 0;
#X connect 15 0 13 0;
#X connect 16 0 4 0;
#X connect 17 0 16 1;
#X connect 18 0 19 0;
#X connect 19 0 16 1;
#X restore 406 61 pd note_distribute;
#N canvas 229 184 620 665 cymbalSynth 0;
#X obj 32 16 inlet;
#X text 78 15 note velocity pairs;
#X obj 247 14 inlet;
#X text 288 14 random note bangs;
#X obj 32 41 unpack 0 0;
#X obj 64 62 / 127;
#X obj 64 85 s \$0-vel;
#X obj 402 129 bng 15 250 50 0 empty empty empty 17 7 0 10 -262144
-1 -1;
#X obj 57 399 *~;
#N canvas 227 330 516 558 env_perc_long 0;
#X obj 198 434 outlet~;
#X obj 13 16 inlet;
#X obj 196 327 / 127;
#X obj 196 366 t a a;
#X obj 157 260 * 127;
#X obj 117 259 t b a;
#X msg 116 280 60;
#X obj 349 21 inlet;
#X text 340 43 volume (0-1);
#X text 59 15 trigger - start envelope;
#X msg 118 153 1;
#X obj 118 131 t b;
#X obj 133 175 *;
#X obj 159 157 loadbang;
#X msg 159 176 1;
#X text 226 160 handle the volume scaling.;
#X text 249 287 setup a midi note (on then off);
#X text 325 355 calculate and send the env;
#X text 41 515 percussive envelope generator - cpm 2012;
#X obj 120 299 makenote 60 2000;
#X obj 435 20 inlet;
#X text 434 44 duration;
#X obj 198 411 c_adsr 1 300 2000 0 2000;
#X text 76 39 handle negative input to close env;
#X connect 1 0 11 0;
#X connect 2 0 3 0;
#X connect 3 0 22 0;
#X connect 3 1 22 1;
#X connect 4 0 19 1;
#X connect 5 0 6 0;
#X connect 5 1 4 0;
#X connect 6 0 19 0;
#X connect 7 0 12 1;
#X connect 10 0 12 0;
#X connect 11 0 10 0;
#X connect 12 0 5 0;
#X connect 13 0 14 0;
#X connect 14 0 12 1;
#X connect 19 1 2 0;
#X connect 20 0 19 2;
#X connect 20 0 22 3;
#X connect 22 0 0 0;
#X restore 147 376 pd env_perc_long;
#X obj 277 344 loadbang;
#X msg 265 368 1000;
#X obj 403 201 / 100;
#X obj 53 281 list prepend 1;
#X obj 53 302 list prepend 0-cym;
#X obj 403 225 + 0.1;
#X obj 194 230 select 0 1;
#X obj 193 206 random 3;
#X floatatom 278 221 5 0 0 0 - - -;
#X msg 103 344 sr 44100;
#X obj 101 323 loadbang;
#X obj 163 353 r \$0-vel;
#X obj 33 108 t a b b;
#X obj 35 191 / 130.8;
#X obj 35 170 mtof;
#X obj 35 214 * 1;
#X obj 86 192 / 1000;
#X obj 85 172 random 15;
#X obj 85 212 + 0.99;
#X obj 33 140 t a b;
#X text 144 139 note;
#X obj 403 150 t b b b b;
#X msg 494 180 1;
#X obj 34 470 outlet~;
#X obj 102 470 outlet~;
#X obj 403 176 random 150;
#X msg 183 270 ab2;
#X msg 224 269 cb2;
#X msg 271 269 ff2;
#X obj 53 366 s_playtable;
#X connect 0 0 4 0;
#X connect 2 0 31 0;
#X connect 4 0 22 0;
#X connect 4 1 5 0;
#X connect 5 0 6 0;
#X connect 7 0 31 0;
#X connect 8 0 33 0;
#X connect 8 0 34 0;
#X connect 9 0 8 1;
#X connect 10 0 11 0;
#X connect 11 0 9 2;
#X connect 12 0 15 0;
#X connect 13 0 14 0;
#X connect 14 0 39 0;
#X connect 15 0 13 0;
#X connect 16 0 36 0;
#X connect 16 1 37 0;
#X connect 16 2 38 0;
#X connect 17 0 16 0;
#X connect 17 0 18 0;
#X connect 19 0 39 1;
#X connect 20 0 19 0;
#X connect 21 0 9 1;
#X connect 22 0 29 0;
#X connect 22 1 9 0;
#X connect 22 2 17 0;
#X connect 23 0 25 0;
#X connect 24 0 23 0;
#X connect 25 0 13 0;
#X connect 26 0 28 0;
#X connect 27 0 26 0;
#X connect 28 0 25 1;
#X connect 29 0 24 0;
#X connect 29 1 27 0;
#X connect 31 0 35 0;
#X connect 31 1 9 0;
#X connect 31 2 17 0;
#X connect 31 3 32 0;
#X connect 32 0 9 1;
#X connect 35 0 12 0;
#X connect 36 0 14 1;
#X connect 37 0 14 1;
#X connect 38 0 14 1;
#X connect 39 0 8 0;
#X restore 96 194 pd cymbalSynth;
#N canvas 498 149 620 665 cymbalSynth 0;
#X obj 32 16 inlet;
#X text 78 15 note velocity pairs;
#X obj 247 14 inlet;
#X text 288 14 random note bangs;
#X obj 32 41 unpack 0 0;
#X obj 64 62 / 127;
#X obj 64 85 s \$0-vel;
#X obj 402 129 bng 15 250 50 0 empty empty empty 17 7 0 10 -262144
-1 -1;
#X obj 57 399 *~;
#N canvas 227 330 516 558 env_perc_long 0;
#X obj 198 434 outlet~;
#X obj 13 16 inlet;
#X obj 196 327 / 127;
#X obj 196 366 t a a;
#X obj 157 260 * 127;
#X obj 117 259 t b a;
#X msg 116 280 60;
#X obj 349 21 inlet;
#X text 340 43 volume (0-1);
#X text 59 15 trigger - start envelope;
#X msg 118 153 1;
#X obj 118 131 t b;
#X obj 133 175 *;
#X obj 159 157 loadbang;
#X msg 159 176 1;
#X text 226 160 handle the volume scaling.;
#X text 249 287 setup a midi note (on then off);
#X text 325 355 calculate and send the env;
#X text 41 515 percussive envelope generator - cpm 2012;
#X obj 120 299 makenote 60 2000;
#X obj 435 20 inlet;
#X text 434 44 duration;
#X obj 198 411 c_adsr 1 300 2000 0 2000;
#X text 76 39 handle negative input to close env;
#X connect 1 0 11 0;
#X connect 2 0 3 0;
#X connect 3 0 22 0;
#X connect 3 1 22 1;
#X connect 4 0 19 1;
#X connect 5 0 6 0;
#X connect 5 1 4 0;
#X connect 6 0 19 0;
#X connect 7 0 12 1;
#X connect 10 0 12 0;
#X connect 11 0 10 0;
#X connect 12 0 5 0;
#X connect 13 0 14 0;
#X connect 14 0 12 1;
#X connect 19 1 2 0;
#X connect 20 0 19 2;
#X connect 20 0 22 3;
#X connect 22 0 0 0;
#X restore 147 376 pd env_perc_long;
#X obj 277 344 loadbang;
#X msg 265 368 1000;
#X obj 403 201 / 100;
#X obj 53 281 list prepend 1;
#X obj 53 302 list prepend 0-cym;
#X obj 403 225 + 0.1;
#X obj 194 230 select 0 1;
#X obj 193 206 random 3;
#X floatatom 278 221 5 0 0 0 - - -;
#X msg 103 344 sr 44100;
#X obj 101 323 loadbang;
#X obj 163 353 r \$0-vel;
#X obj 33 108 t a b b;
#X obj 35 191 / 130.8;
#X obj 35 170 mtof;
#X obj 35 214 * 1;
#X obj 86 192 / 1000;
#X obj 85 172 random 15;
#X obj 85 212 + 0.99;
#X obj 33 140 t a b;
#X text 144 139 note;
#X obj 403 150 t b b b b;
#X msg 494 180 1;
#X obj 34 470 outlet~;
#X obj 102 470 outlet~;
#X obj 403 176 random 150;
#X msg 183 270 ab1;
#X msg 224 269 cb1;
#X msg 271 269 ff1;
#X obj 53 366 s_playtable;
#X connect 0 0 4 0;
#X connect 2 0 31 0;
#X connect 4 0 22 0;
#X connect 4 1 5 0;
#X connect 5 0 6 0;
#X connect 7 0 31 0;
#X connect 8 0 33 0;
#X connect 8 0 34 0;
#X connect 9 0 8 1;
#X connect 10 0 11 0;
#X connect 11 0 9 2;
#X connect 12 0 15 0;
#X connect 13 0 14 0;
#X connect 14 0 39 0;
#X connect 15 0 13 0;
#X connect 16 0 36 0;
#X connect 16 1 37 0;
#X connect 16 2 38 0;
#X connect 17 0 16 0;
#X connect 17 0 18 0;
#X connect 19 0 39 1;
#X connect 20 0 19 0;
#X connect 21 0 9 1;
#X connect 22 0 29 0;
#X connect 22 1 9 0;
#X connect 22 2 17 0;
#X connect 23 0 25 0;
#X connect 24 0 23 0;
#X connect 25 0 13 0;
#X connect 26 0 28 0;
#X connect 27 0 26 0;
#X connect 28 0 25 1;
#X connect 29 0 24 0;
#X connect 29 1 27 0;
#X connect 31 0 35 0;
#X connect 31 1 9 0;
#X connect 31 2 17 0;
#X connect 31 3 32 0;
#X connect 32 0 9 1;
#X connect 35 0 12 0;
#X connect 36 0 14 1;
#X connect 37 0 14 1;
#X connect 38 0 14 1;
#X connect 39 0 8 0;
#X restore 244 202 pd cymbalSynth;
#N canvas 374 229 620 665 cymbalSynth 0;
#X obj 32 16 inlet;
#X text 78 15 note velocity pairs;
#X obj 247 14 inlet;
#X text 288 14 random note bangs;
#X obj 32 41 unpack 0 0;
#X obj 64 62 / 127;
#X obj 64 85 s \$0-vel;
#X obj 402 129 bng 15 250 50 0 empty empty empty 17 7 0 10 -262144
-1 -1;
#X obj 57 399 *~;
#N canvas 227 330 516 558 env_perc_long 0;
#X obj 198 434 outlet~;
#X obj 13 16 inlet;
#X obj 196 327 / 127;
#X obj 196 366 t a a;
#X obj 157 260 * 127;
#X obj 117 259 t b a;
#X msg 116 280 60;
#X obj 349 21 inlet;
#X text 340 43 volume (0-1);
#X text 59 15 trigger - start envelope;
#X msg 118 153 1;
#X obj 118 131 t b;
#X obj 133 175 *;
#X obj 159 157 loadbang;
#X msg 159 176 1;
#X text 226 160 handle the volume scaling.;
#X text 249 287 setup a midi note (on then off);
#X text 325 355 calculate and send the env;
#X text 41 515 percussive envelope generator - cpm 2012;
#X obj 120 299 makenote 60 2000;
#X obj 435 20 inlet;
#X text 434 44 duration;
#X obj 198 411 c_adsr 1 300 2000 0 2000;
#X text 76 39 handle negative input to close env;
#X connect 1 0 11 0;
#X connect 2 0 3 0;
#X connect 3 0 22 0;
#X connect 3 1 22 1;
#X connect 4 0 19 1;
#X connect 5 0 6 0;
#X connect 5 1 4 0;
#X connect 6 0 19 0;
#X connect 7 0 12 1;
#X connect 10 0 12 0;
#X connect 11 0 10 0;
#X connect 12 0 5 0;
#X connect 13 0 14 0;
#X connect 14 0 12 1;
#X connect 19 1 2 0;
#X connect 20 0 19 2;
#X connect 20 0 22 3;
#X connect 22 0 0 0;
#X restore 147 376 pd env_perc_long;
#X obj 277 344 loadbang;
#X msg 265 368 1000;
#X obj 403 201 / 100;
#X obj 53 281 list prepend 1;
#X obj 53 302 list prepend 0-cym;
#X obj 403 225 + 0.1;
#X obj 194 230 select 0 1;
#X obj 193 206 random 3;
#X floatatom 278 221 5 0 0 0 - - -;
#X msg 103 344 sr 44100;
#X obj 101 323 loadbang;
#X obj 163 353 r \$0-vel;
#X obj 33 108 t a b b;
#X obj 35 191 / 130.8;
#X obj 35 170 mtof;
#X obj 35 214 * 1;
#X obj 86 192 / 1000;
#X obj 85 172 random 15;
#X obj 85 212 + 0.99;
#X obj 33 140 t a b;
#X text 144 139 note;
#X obj 403 150 t b b b b;
#X msg 494 180 1;
#X obj 34 470 outlet~;
#X obj 102 470 outlet~;
#X obj 403 176 random 150;
#X msg 183 270 pitea;
#X msg 224 269 stream;
#X msg 271 269 d1;
#X obj 53 366 s_playtable;
#X connect 0 0 4 0;
#X connect 2 0 31 0;
#X connect 4 0 22 0;
#X connect 4 1 5 0;
#X connect 5 0 6 0;
#X connect 7 0 31 0;
#X connect 8 0 33 0;
#X connect 8 0 34 0;
#X connect 9 0 8 1;
#X connect 10 0 11 0;
#X connect 11 0 9 2;
#X connect 12 0 15 0;
#X connect 13 0 14 0;
#X connect 14 0 39 0;
#X connect 15 0 13 0;
#X connect 16 0 36 0;
#X connect 16 1 37 0;
#X connect 16 2 38 0;
#X connect 17 0 16 0;
#X connect 17 0 18 0;
#X connect 19 0 39 1;
#X connect 20 0 19 0;
#X connect 21 0 9 1;
#X connect 22 0 29 0;
#X connect 22 1 9 0;
#X connect 22 2 17 0;
#X connect 23 0 25 0;
#X connect 24 0 23 0;
#X connect 25 0 13 0;
#X connect 26 0 28 0;
#X connect 27 0 26 0;
#X connect 28 0 25 1;
#X connect 29 0 24 0;
#X connect 29 1 27 0;
#X connect 31 0 35 0;
#X connect 31 1 9 0;
#X connect 31 2 17 0;
#X connect 31 3 32 0;
#X connect 32 0 9 1;
#X connect 35 0 12 0;
#X connect 36 0 14 1;
#X connect 37 0 14 1;
#X connect 38 0 14 1;
#X connect 39 0 8 0;
#X restore 394 198 pd cymbalSynth;
#N canvas 374 229 620 665 cymbalSynth 0;
#X obj 32 16 inlet;
#X text 78 15 note velocity pairs;
#X obj 247 14 inlet;
#X text 288 14 random note bangs;
#X obj 32 41 unpack 0 0;
#X obj 64 62 / 127;
#X obj 64 85 s \$0-vel;
#X obj 402 129 bng 15 250 50 0 empty empty empty 17 7 0 10 -262144
-1 -1;
#X obj 57 399 *~;
#N canvas 227 330 516 558 env_perc_long 0;
#X obj 198 434 outlet~;
#X obj 13 16 inlet;
#X obj 196 327 / 127;
#X obj 196 366 t a a;
#X obj 157 260 * 127;
#X obj 117 259 t b a;
#X msg 116 280 60;
#X obj 349 21 inlet;
#X text 340 43 volume (0-1);
#X text 59 15 trigger - start envelope;
#X msg 118 153 1;
#X obj 118 131 t b;
#X obj 133 175 *;
#X obj 159 157 loadbang;
#X msg 159 176 1;
#X text 226 160 handle the volume scaling.;
#X text 249 287 setup a midi note (on then off);
#X text 325 355 calculate and send the env;
#X text 41 515 percussive envelope generator - cpm 2012;
#X obj 120 299 makenote 60 2000;
#X obj 435 20 inlet;
#X text 434 44 duration;
#X obj 198 411 c_adsr 1 300 2000 0 2000;
#X text 76 39 handle negative input to close env;
#X connect 1 0 11 0;
#X connect 2 0 3 0;
#X connect 3 0 22 0;
#X connect 3 1 22 1;
#X connect 4 0 19 1;
#X connect 5 0 6 0;
#X connect 5 1 4 0;
#X connect 6 0 19 0;
#X connect 7 0 12 1;
#X connect 10 0 12 0;
#X connect 11 0 10 0;
#X connect 12 0 5 0;
#X connect 13 0 14 0;
#X connect 14 0 12 1;
#X connect 19 1 2 0;
#X connect 20 0 19 2;
#X connect 20 0 22 3;
#X connect 22 0 0 0;
#X restore 147 376 pd env_perc_long;
#X obj 277 344 loadbang;
#X msg 265 368 1000;
#X obj 403 201 / 100;
#X obj 53 281 list prepend 1;
#X obj 53 302 list prepend 0-cym;
#X obj 403 225 + 0.1;
#X obj 194 230 select 0 1;
#X obj 193 206 random 3;
#X floatatom 278 221 5 0 0 0 - - -;
#X msg 103 344 sr 44100;
#X obj 101 323 loadbang;
#X obj 163 353 r \$0-vel;
#X obj 33 108 t a b b;
#X obj 35 191 / 130.8;
#X obj 35 170 mtof;
#X obj 35 214 * 1;
#X obj 86 192 / 1000;
#X obj 85 172 random 15;
#X obj 85 212 + 0.99;
#X obj 33 140 t a b;
#X text 144 139 note;
#X obj 403 150 t b b b b;
#X msg 494 180 1;
#X obj 34 470 outlet~;
#X obj 102 470 outlet~;
#X obj 403 176 random 150;
#X msg 183 270 ab3;
#X msg 225 269 cb3;
#X msg 271 269 ff3;
#X obj 53 366 s_playtable;
#X connect 0 0 4 0;
#X connect 2 0 31 0;
#X connect 4 0 22 0;
#X connect 4 1 5 0;
#X connect 5 0 6 0;
#X connect 7 0 31 0;
#X connect 8 0 33 0;
#X connect 8 0 34 0;
#X connect 9 0 8 1;
#X connect 10 0 11 0;
#X connect 11 0 9 2;
#X connect 12 0 15 0;
#X connect 13 0 14 0;
#X connect 14 0 39 0;
#X connect 15 0 13 0;
#X connect 16 0 36 0;
#X connect 16 1 37 0;
#X connect 16 2 38 0;
#X connect 17 0 16 0;
#X connect 17 0 18 0;
#X connect 19 0 39 1;
#X connect 20 0 19 0;
#X connect 21 0 9 1;
#X connect 22 0 29 0;
#X connect 22 1 9 0;
#X connect 22 2 17 0;
#X connect 23 0 25 0;
#X connect 24 0 23 0;
#X connect 25 0 13 0;
#X connect 26 0 28 0;
#X connect 27 0 26 0;
#X connect 28 0 25 1;
#X connect 29 0 24 0;
#X connect 29 1 27 0;
#X connect 31 0 35 0;
#X connect 31 1 9 0;
#X connect 31 2 17 0;
#X connect 31 3 32 0;
#X connect 32 0 9 1;
#X connect 35 0 12 0;
#X connect 36 0 14 1;
#X connect 37 0 14 1;
#X connect 38 0 14 1;
#X connect 39 0 8 0;
#X restore 530 202 pd cymbalSynth;
#X obj 587 166 bng 15 250 50 0 empty empty empty 17 7 0 10 -262144
-1 -1;
#X obj 512 38 r autoField;
#X obj 469 280 *~ 0.97;
#X obj 340 286 *~ 0.97;
#X connect 0 0 4 0;
#X connect 3 0 11 1;
#X connect 4 0 6 0;
#X connect 6 0 3 0;
#X connect 6 1 7 0;
#X connect 6 2 8 0;
#X connect 6 3 15 0;
#X connect 7 0 12 1;
#X connect 8 0 13 1;
#X connect 9 0 10 0;
#X connect 9 1 10 1;
#X connect 10 0 11 0;
#X connect 10 1 12 0;
#X connect 10 2 13 0;
#X connect 10 3 14 0;
#X connect 11 0 18 0;
#X connect 11 1 17 0;
#X connect 12 0 18 0;
#X connect 12 1 17 0;
#X connect 13 0 18 0;
#X connect 13 1 17 0;
#X connect 14 0 18 0;
#X connect 14 1 17 0;
#X connect 15 0 14 1;
#X connect 16 0 10 2;
#X connect 17 0 2 0;
#X connect 18 0 1 0;
#X restore 289 246 pd cymbals;
#N canvas 727 49 477 425 clustermetro 0;
#X obj 303 241 bng 15 250 50 0 empty empty empty 17 7 0 10 -262144
-1 -1;
#X obj 247 264 + 1;
#X obj 211 109 t b b b b;
#X obj 201 15 bng 15 250 50 0 empty empty empty 17 7 0 10 -262144 -1
-1;
#X floatatom 256 287 5 0 0 0 - - -;
#X obj 247 244 random 6;
#X obj 67 123 delay 1000;
#X obj 192 324 c_multimetro 16 200;
#X obj 192 298 tgl 15 0 empty empty empty 17 7 0 10 -262144 -1 -1 1
1;
#X obj 91 319 delay 10;
#X msg 149 325 stop;
#X floatatom 89 252 5 0 0 0 - - -;
#X obj 89 276 sel 15;
#X obj 83 299 bng 15 250 50 0 empty empty empty 17 7 0 10 -262144 -1
-1;
#X obj 102 297 t b;
#X msg 192 277 1;
#X obj 223 13 loadbang;
#X obj 192 346 outlet;
#X obj 157 14 inlet;
#N canvas 1012 38 445 814 createclusterrhythm 0;
#X obj 78 50 inlet;
#X obj 52 778 outlet;
#X obj 68 140 t b b b b b b b b;
#X obj 93 478 list append;
#X obj 92 500 list append;
#X obj 95 522 list append;
#X obj 96 544 list append;
#X obj 94 567 list append;
#X obj 95 592 list append;
#X obj 167 187 + 200;
#X obj 148 231 + 200;
#X obj 143 277 + 200;
#X obj 122 316 + 200;
#X obj 113 358 + 200;
#X obj 104 402 + 200;
#X obj 94 444 + 200;
#X obj 167 167 random 4000;
#X obj 148 211 random 4000;
#X obj 143 257 random 4000;
#X obj 122 296 random 4000;
#X obj 113 338 random 4000;
#X obj 104 382 random 4000;
#X obj 94 424 random 4000;
#X connect 0 0 2 0;
#X connect 2 1 22 0;
#X connect 2 2 21 0;
#X connect 2 3 20 0;
#X connect 2 4 19 0;
#X connect 2 5 18 0;
#X connect 2 6 17 0;
#X connect 2 7 16 0;
#X connect 3 0 4 0;
#X connect 4 0 5 0;
#X connect 5 0 6 0;
#X connect 6 0 7 0;
#X connect 7 0 8 0;
#X connect 8 0 1 0;
#X connect 9 0 8 1;
#X connect 10 0 7 1;
#X connect 11 0 6 1;
#X connect 12 0 5 1;
#X connect 13 0 4 1;
#X connect 14 0 3 1;
#X connect 15 0 3 0;
#X connect 16 0 9 0;
#X connect 17 0 10 0;
#X connect 18 0 11 0;
#X connect 19 0 12 0;
#X connect 20 0 13 0;
#X connect 21 0 14 0;
#X connect 22 0 15 0;
#X restore 303 262 pd createclusterrhythm;
#X obj 348 352 print rhythm:;
#X obj 46 124 bng 15 250 50 0 empty empty empty 17 7 0 10 -262144 -1
-1;
#X obj 345 321 spigot;
#X obj 374 293 tgl 15 0 empty empty empty 17 7 0 10 -262144 -1 -1 0
1;
#X text 40 73 timer for calculating new cycle;
#X text 329 235 creates the rhythm;
#X obj 66 97 random 20000;
#X connect 0 0 19 0;
#X connect 1 0 7 1;
#X connect 1 0 4 0;
#X connect 2 0 26 0;
#X connect 2 1 15 0;
#X connect 2 2 5 0;
#X connect 2 3 0 0;
#X connect 3 0 2 0;
#X connect 5 0 1 0;
#X connect 5 0 12 1;
#X connect 6 0 2 0;
#X connect 6 0 21 0;
#X connect 7 0 11 0;
#X connect 7 0 17 0;
#X connect 8 0 7 0;
#X connect 9 0 10 0;
#X connect 9 0 6 0;
#X connect 10 0 7 0;
#X connect 11 0 12 0;
#X connect 12 0 13 0;
#X connect 12 0 14 0;
#X connect 14 0 9 0;
#X connect 15 0 8 0;
#X connect 16 0 2 0;
#X connect 18 0 2 0;
#X connect 19 0 7 2;
#X connect 19 0 22 0;
#X connect 22 0 20 0;
#X connect 23 0 22 1;
#X connect 26 0 6 1;
#X restore 306 193 pd clustermetro;
#X obj 285 195 bng 15 250 50 0 empty empty empty 17 7 0 10 -262144
-1 -1;
#N canvas 326 601 450 300 sel01 0;
#X obj 122 3 inlet;
#X obj 247 31 sel 0;
#X msg 225 58 0;
#X msg 275 57 1;
#X obj 49 133 spigot;
#X obj 240 5 inlet;
#X obj 47 203 outlet;
#X obj 165 105 tgl 15 0 empty empty empty 17 7 0 10 -262144 -1 -1 0
1;
#X connect 0 0 4 0;
#X connect 1 0 2 0;
#X connect 1 1 3 0;
#X connect 2 0 7 0;
#X connect 3 0 7 0;
#X connect 4 0 6 0;
#X connect 5 0 1 0;
#X connect 7 0 4 1;
#X coords 0 -1 1 1 85 25 1 100 100;
#X restore 304 216 pd sel01;
#N canvas 59 165 1265 689 loadsounds 1;
#X obj 94 14 loadbang;
#X obj 91 58 soundfiler;
#X obj 91 114 loadbang;
#X obj 92 159 soundfiler;
#X msg 93 36 read -resize ainsliebirds1.wav ab1;
#X obj 94 84 table ab1;
#X msg 93 136 read -resize ainsliebirds2.wav ab2;
#X obj 91 184 table ab2;
#X obj 97 215 loadbang;
#X obj 98 260 soundfiler;
#X obj 97 285 table ab3;
#X msg 99 237 read -resize ainsliebirds3.wav ab3;
#X obj 373 9 loadbang;
#X obj 370 53 soundfiler;
#X obj 370 109 loadbang;
#X obj 371 154 soundfiler;
#X obj 376 210 loadbang;
#X obj 377 255 soundfiler;
#X msg 372 31 read -resize cabinbirds1.wav cb1;
#X obj 373 79 table cb1;
#X msg 372 131 read -resize cabinbirds2.wav cb2;
#X obj 369 179 table cb2;
#X msg 378 232 read -resize cabinbirds3.wav cb3;
#X obj 376 280 table cb3;
#X obj 91 325 loadbang;
#X obj 88 369 soundfiler;
#X obj 88 425 loadbang;
#X obj 89 470 soundfiler;
#X obj 94 526 loadbang;
#X obj 95 571 soundfiler;
#X msg 90 347 read -resize forestfloor1.wav ff1;
#X obj 91 395 table ff1;
#X msg 90 447 read -resize forestfloor2.wav ff2;
#X obj 87 495 table ff2;
#X msg 96 548 read -resize forestfloor3.wav ff3;
#X obj 94 596 table ff3;
#X obj 390 315 loadbang;
#X obj 387 359 soundfiler;
#X obj 387 415 loadbang;
#X obj 388 460 soundfiler;
#X obj 393 516 loadbang;
#X obj 394 561 soundfiler;
#X msg 389 337 read -resize drips1.wav d1;
#X obj 392 385 table d1;
#X msg 389 437 read -resize drips2.wav d2;
#X obj 386 485 table d2;
#X msg 395 538 read -resize stream.wav stream;
#X obj 393 586 table stream;
#X obj 592 508 loadbang;
#X obj 593 553 soundfiler;
#X msg 594 530 read -resize piteabirds.wav pitea;
#X obj 592 578 table pitea;
#X obj 598 286 loadbang;
#X obj 599 331 soundfiler;
#X obj 617 15 loadbang;
#X obj 618 60 soundfiler;
#X obj 617 85 table doodoo;
#X msg 619 37 read -resize doodoodoodoo.wav doodoo;
#X obj 617 109 loadbang;
#X obj 618 154 soundfiler;
#X obj 617 179 table whirpwhirp;
#X msg 619 131 read -resize whirpwhirp.wav whirpwhirp;
#X obj 669 208 loadbang;
#X obj 670 253 soundfiler;
#X msg 672 230 read -resize yelpyelpyelp.wav yelpyelp;
#X obj 669 278 table yelpyelp;
#X obj 593 391 loadbang;
#X obj 594 436 soundfiler;
#X obj 593 461 table block;
#X msg 595 413 read -resize lowblock.wav block;
#X msg 600 308 read -resize xylo-C.wav xylo;
#X obj 597 355 table xylo;
#X obj 941 18 declare -path percsamples;
#X obj 942 65 declare -path cpmlibs;
#X obj 942 41 declare -path fieldrecordings;
#X connect 0 0 4 0;
#X connect 2 0 6 0;
#X connect 4 0 1 0;
#X connect 6 0 3 0;
#X connect 8 0 11 0;
#X connect 11 0 9 0;
#X connect 12 0 18 0;
#X connect 14 0 20 0;
#X connect 16 0 22 0;
#X connect 18 0 13 0;
#X connect 20 0 15 0;
#X connect 22 0 17 0;
#X connect 24 0 30 0;
#X connect 26 0 32 0;
#X connect 28 0 34 0;
#X connect 30 0 25 0;
#X connect 32 0 27 0;
#X connect 34 0 29 0;
#X connect 36 0 42 0;
#X connect 38 0 44 0;
#X connect 40 0 46 0;
#X connect 42 0 37 0;
#X connect 44 0 39 0;
#X connect 46 0 41 0;
#X connect 48 0 50 0;
#X connect 50 0 49 0;
#X connect 52 0 70 0;
#X connect 54 0 57 0;
#X connect 57 0 55 0;
#X connect 58 0 61 0;
#X connect 61 0 59 0;
#X connect 62 0 64 0;
#X connect 64 0 63 0;
#X connect 66 0 69 0;
#X connect 69 0 67 0;
#X connect 70 0 53 0;
#X restore 31 593 pd loadsounds;
#N canvas 93 395 450 300 reverb 0;
#X obj 48 24 inlet~;
#X obj 47 206 outlet~;
#X obj 132 33 loadbang;
#X obj 46 117 e_reverb \$0-reverbBus;
#X obj 106 207 outlet~;
#X msg 132 54 amp 80 \, hall 85 \, freq 6000 \, damp 60 \, dry 0;
#X connect 0 0 3 0;
#X connect 2 0 5 0;
#X connect 3 0 1 0;
#X connect 3 1 4 0;
#X connect 5 0 3 1;
#X restore 150 353 pd reverb;
#N canvas 727 49 477 425 clustermetro 0;
#X obj 303 241 bng 15 250 50 0 empty empty empty 17 7 0 10 -262144
-1 -1;
#X obj 247 264 + 1;
#X obj 211 109 t b b b b;
#X obj 201 15 bng 15 250 50 0 empty empty empty 17 7 0 10 -262144 -1
-1;
#X floatatom 256 287 5 0 0 0 - - -;
#X obj 247 244 random 6;
#X obj 67 123 delay 1000;
#X obj 192 324 c_multimetro 16 200;
#X obj 192 298 tgl 15 0 empty empty empty 17 7 0 10 -262144 -1 -1 1
1;
#X obj 91 319 delay 10;
#X msg 149 325 stop;
#X floatatom 89 252 5 0 0 0 - - -;
#X obj 89 276 sel 15;
#X obj 83 299 bng 15 250 50 0 empty empty empty 17 7 0 10 -262144 -1
-1;
#X obj 102 297 t b;
#X msg 192 277 1;
#X obj 223 13 loadbang;
#X obj 192 346 outlet;
#X obj 157 14 inlet;
#N canvas 1012 38 445 814 createclusterrhythm 0;
#X obj 78 50 inlet;
#X obj 52 778 outlet;
#X obj 68 140 t b b b b b b b b;
#X obj 93 478 list append;
#X obj 92 500 list append;
#X obj 95 522 list append;
#X obj 96 544 list append;
#X obj 94 567 list append;
#X obj 95 592 list append;
#X obj 167 187 + 200;
#X obj 148 231 + 200;
#X obj 143 277 + 200;
#X obj 122 316 + 200;
#X obj 113 358 + 200;
#X obj 104 402 + 200;
#X obj 94 444 + 200;
#X obj 167 167 random 4000;
#X obj 148 211 random 4000;
#X obj 143 257 random 4000;
#X obj 122 296 random 4000;
#X obj 113 338 random 4000;
#X obj 104 382 random 4000;
#X obj 94 424 random 4000;
#X connect 0 0 2 0;
#X connect 2 1 22 0;
#X connect 2 2 21 0;
#X connect 2 3 20 0;
#X connect 2 4 19 0;
#X connect 2 5 18 0;
#X connect 2 6 17 0;
#X connect 2 7 16 0;
#X connect 3 0 4 0;
#X connect 4 0 5 0;
#X connect 5 0 6 0;
#X connect 6 0 7 0;
#X connect 7 0 8 0;
#X connect 8 0 1 0;
#X connect 9 0 8 1;
#X connect 10 0 7 1;
#X connect 11 0 6 1;
#X connect 12 0 5 1;
#X connect 13 0 4 1;
#X connect 14 0 3 1;
#X connect 15 0 3 0;
#X connect 16 0 9 0;
#X connect 17 0 10 0;
#X connect 18 0 11 0;
#X connect 19 0 12 0;
#X connect 20 0 13 0;
#X connect 21 0 14 0;
#X connect 22 0 15 0;
#X restore 303 262 pd createclusterrhythm;
#X obj 348 352 print rhythm:;
#X obj 46 124 bng 15 250 50 0 empty empty empty 17 7 0 10 -262144 -1
-1;
#X obj 345 321 spigot;
#X obj 374 293 tgl 15 0 empty empty empty 17 7 0 10 -262144 -1 -1 0
1;
#X text 40 73 timer for calculating new cycle;
#X text 329 235 creates the rhythm;
#X obj 66 97 random 20000;
#X connect 0 0 19 0;
#X connect 1 0 7 1;
#X connect 1 0 4 0;
#X connect 2 0 26 0;
#X connect 2 1 15 0;
#X connect 2 2 5 0;
#X connect 2 3 0 0;
#X connect 3 0 2 0;
#X connect 5 0 1 0;
#X connect 5 0 12 1;
#X connect 6 0 2 0;
#X connect 6 0 21 0;
#X connect 7 0 11 0;
#X connect 7 0 17 0;
#X connect 8 0 7 0;
#X connect 9 0 10 0;
#X connect 9 0 6 0;
#X connect 10 0 7 0;
#X connect 11 0 12 0;
#X connect 12 0 13 0;
#X connect 12 0 14 0;
#X connect 14 0 9 0;
#X connect 15 0 8 0;
#X connect 16 0 2 0;
#X connect 18 0 2 0;
#X connect 19 0 7 2;
#X connect 19 0 22 0;
#X connect 22 0 20 0;
#X connect 23 0 22 1;
#X connect 26 0 6 1;
#X restore 451 192 pd clustermetro;
#X obj 430 194 bng 15 250 50 0 empty empty empty 17 7 0 10 -262144
-1 -1;
#N canvas 326 601 450 300 sel01 0;
#X obj 122 3 inlet;
#X obj 247 31 sel 0;
#X msg 225 58 0;
#X msg 275 57 1;
#X obj 49 133 spigot;
#X obj 240 5 inlet;
#X obj 47 203 outlet;
#X obj 165 105 tgl 15 0 empty empty empty 17 7 0 10 -262144 -1 -1 0
1;
#X connect 0 0 4 0;
#X connect 1 0 2 0;
#X connect 1 1 3 0;
#X connect 2 0 7 0;
#X connect 3 0 7 0;
#X connect 4 0 6 0;
#X connect 5 0 1 0;
#X connect 7 0 4 1;
#X coords 0 -1 1 1 85 25 1 100 100;
#X restore 449 215 pd sel01;
#N canvas 27 222 450 300 output 0;
#X obj 60 16 inlet~;
#X obj 60 52 hip~ 1;
#X obj 60 78 clip~ -1 1;
#X obj 131 16 inlet~;
#X obj 131 52 hip~ 1;
#X obj 131 78 clip~ -1 1;
#X obj 100 111 dac~;
#X obj 37 157 s \$0-mainLevelReadout;
#X obj 37 135 pvu~ 100 300;
#X connect 0 0 1 0;
#X connect 1 0 2 0;
#X connect 1 0 8 0;
#X connect 2 0 6 0;
#X connect 3 0 4 0;
#X connect 4 0 5 0;
#X connect 5 0 6 1;
#X connect 8 0 7 0;
#X restore 446 460 pd output;
#X obj 516 555 tgl 15 0 empty empty empty 17 7 0 10 -262144 -1 -1 0
1;
#N canvas 474 420 806 431 field_responder 0;
#X obj 662 33 inlet;
#X obj 182 51 inlet;
#X text 661 15 touchMoved;
#X text 181 34 touchEnded;
#X obj 137 379 outlet~;
#X obj 191 379 outlet~;
#X msg 225 76 0;
#N canvas 702 306 489 366 chooseOutAtLoad 0;
#X obj 28 19 inlet;
#X floatatom 45 97 5 0 0 0 - - -;
#X msg 239 81 set \$1;
#X obj 27 280 outlet;
#X obj 158 283 outlet;
#X obj 238 21 loadbang;
#X obj 241 56 random 3;
#X obj 40 192 sel 0 1 2;
#X obj 300 282 outlet;
#X obj 300 20 r randomiseSounds;
#X obj 393 251 inlet;
#X obj 181 22 inlet;
#N canvas 898 337 450 300 loop 0;
#X obj 79 136 list prepend loop;
#X obj 67 161 list;
#X obj 67 182 list trim;
#X obj 31 20 inlet;
#X obj 124 19 inlet;
#X obj 60 229 outlet;
#X connect 0 0 1 1;
#X connect 1 0 2 0;
#X connect 2 0 5 0;
#X connect 3 0 1 0;
#X connect 4 0 0 0;
#X restore 29 246 pd loop;
#N canvas 898 337 450 300 loop 0;
#X obj 79 136 list prepend loop;
#X obj 67 161 list;
#X obj 67 182 list trim;
#X obj 31 20 inlet;
#X obj 124 19 inlet;
#X obj 60 229 outlet;
#X connect 0 0 1 1;
#X connect 1 0 2 0;
#X connect 2 0 5 0;
#X connect 3 0 1 0;
#X connect 4 0 0 0;
#X restore 159 245 pd loop;
#N canvas 898 337 450 300 loop 0;
#X obj 79 136 list prepend loop;
#X obj 67 161 list;
#X obj 67 182 list trim;
#X obj 31 20 inlet;
#X obj 124 19 inlet;
#X obj 60 229 outlet;
#X connect 0 0 1 1;
#X connect 1 0 2 0;
#X connect 2 0 5 0;
#X connect 3 0 1 0;
#X connect 4 0 0 0;
#X restore 308 240 pd loop;
#X connect 0 0 1 0;
#X connect 1 0 7 0;
#X connect 2 0 1 0;
#X connect 5 0 6 0;
#X connect 6 0 2 0;
#X connect 7 0 12 0;
#X connect 7 1 13 0;
#X connect 7 2 14 0;
#X connect 9 0 6 0;
#X connect 10 0 8 0;
#X connect 10 0 4 0;
#X connect 10 0 3 0;
#X connect 11 0 12 1;
#X connect 11 0 13 1;
#X connect 11 0 14 1;
#X connect 12 0 3 0;
#X connect 13 0 4 0;
#X connect 14 0 8 0;
#X restore 79 127 pd chooseOutAtLoad;
#X obj 78 57 inlet;
#X obj 79 80 t b a;
#X msg 182 97 stop;
#X text 67 36 pan started;
#X obj 227 274 r touchMovedVolume;
#X obj 677 246 s touchMovedVolume;
#X obj 136 272 stereovol 90;
#X obj 74 218 cpmlooper ab2;
#X obj 670 116 * 100;
#X obj 272 218 cpmlooper ff2;
#X obj 173 218 cpmlooper cb2;
#X obj 672 138 moses 100;
#X msg 714 166 100;
#X obj 667 82 + 0.3;
#X obj 686 222 line;
#X obj 684 194 pack 1 100;
#X obj 669 59 * 1.1;
#X obj 369 184 cpmlooper ab1;
#X obj 394 212 cpmlooper ab3;
#X connect 0 0 24 0;
#X connect 1 0 10 0;
#X connect 1 0 6 0;
#X connect 6 0 23 0;
#X connect 7 0 15 0;
#X connect 7 1 18 0;
#X connect 7 2 17 0;
#X connect 8 0 9 0;
#X connect 9 0 7 0;
#X connect 9 1 7 1;
#X connect 10 0 7 2;
#X connect 12 0 14 2;
#X connect 14 0 4 0;
#X connect 14 1 5 0;
#X connect 15 0 14 0;
#X connect 15 1 14 1;
#X connect 16 0 19 0;
#X connect 17 0 14 0;
#X connect 17 1 14 1;
#X connect 18 0 14 0;
#X connect 18 1 14 1;
#X connect 19 0 23 0;
#X connect 19 1 20 0;
#X connect 20 0 23 0;
#X connect 21 0 16 0;
#X connect 22 0 13 0;
#X connect 23 0 22 0;
#X connect 24 0 21 0;
#X restore 605 247 pd field_responder;
#X obj 504 161 r autoField;
#X obj 304 169 r autoCymbal;
#X obj 140 173 r autoBowl;
#X obj 516 578 s autoField;
#X obj 392 558 bng 15 250 50 0 empty empty empty 17 7 0 10 -262144
-1 -1;
#X obj 392 577 s randomiseSounds;
#X obj 627 181 r panstarted;
#X obj 33 139 vu 30 280 \$0-mainLevelReadout empty -1 -8 0 10 -66577
-1 1 0;
#N canvas 272 79 430 393 autoplay 0;
#X obj 107 34 inlet;
#X obj 92 269 outlet~;
#X obj 142 268 outlet~;
#X obj 107 54 t b;
#X text 107 13 note;
#X obj 281 20 inlet;
#X obj 282 45 t b;
#X obj 284 253 t a;
#X obj 108 186 slicesampler;
#X obj 243 102 select 0 1 2 3 4;
#X msg 108 161 1;
#X msg 244 137 cb1;
#X msg 262 162 ab1;
#X msg 280 186 ff1;
#X msg 294 211 stream;
#X msg 312 233 pitea;
#X obj 108 211 *~ 0.85;
#X obj 243 76 random 5;
#X connect 0 0 3 0;
#X connect 3 0 10 0;
#X connect 5 0 6 0;
#X connect 6 0 17 0;
#X connect 7 0 8 1;
#X connect 8 0 16 0;
#X connect 9 0 11 0;
#X connect 9 1 12 0;
#X connect 9 2 13 0;
#X connect 9 3 14 0;
#X connect 9 4 15 0;
#X connect 10 0 8 0;
#X connect 11 0 7 0;
#X connect 12 0 7 0;
#X connect 13 0 7 0;
#X connect 14 0 7 0;
#X connect 15 0 7 0;
#X connect 16 0 1 0;
#X connect 16 0 2 0;
#X connect 17 0 9 0;
#X restore 448 245 pd autoplay;
#N canvas 125 74 853 703 tapnotes 0;
#N canvas 1002 481 501 471 makebelnote 0;
#X obj 21 15 inlet;
#X obj 85 442 outlet;
#X obj 85 414 pack f f;
#X floatatom 55 229 5 0 0 0 - - -;
#X obj 54 162 bng 15 250 50 0 empty empty empty 17 7 0 10 -262144 -1
-1;
#X obj 54 184 random 7;
#X text 78 246 note;
#X obj 59 267 m_mixolydian 48;
#X obj 196 240 / 100;
#X obj 196 197 random 15;
#X obj 196 219 + 85;
#X obj 196 262 * 127;
#X obj 143 122 t b b;
#X obj 55 208 tabread \$0-cluster2;
#X connect 0 0 12 0;
#X connect 2 0 1 0;
#X connect 3 0 7 0;
#X connect 4 0 5 0;
#X connect 5 0 13 0;
#X connect 7 0 2 0;
#X connect 8 0 11 0;
#X connect 9 0 10 0;
#X connect 10 0 8 0;
#X connect 11 0 2 1;
#X connect 12 0 5 0;
#X connect 12 1 9 0;
#X connect 13 0 3 0;
#X restore 67 399 pd makebelnote;
#X obj 71 335 bng 15 250 50 0 empty empty empty 17 7 0 10 -262144 -1
-1;
#X obj 222 631 outlet~;
#X obj 274 630 outlet~;
#X obj 45 250 inlet;
#X text 23 231 note input;
#N canvas 678 157 501 471 makebelnote 0;
#X obj 21 15 inlet;
#X obj 85 442 outlet;
#X obj 85 414 pack f f;
#X floatatom 55 229 5 0 0 0 - - -;
#X obj 54 162 bng 15 250 50 0 empty empty empty 17 7 0 10 -262144 -1
-1;
#X obj 54 184 random 7;
#X text 78 246 note;
#X obj 59 267 m_mixolydian 48;
#X obj 196 240 / 100;
#X obj 196 197 random 15;
#X obj 196 219 + 85;
#X obj 196 262 * 127;
#X obj 143 122 t b b;
#X obj 55 208 tabread \$0-cluster2;
#X connect 0 0 12 0;
#X connect 2 0 1 0;
#X connect 3 0 7 0;
#X connect 4 0 5 0;
#X connect 5 0 13 0;
#X connect 7 0 2 0;
#X connect 8 0 11 0;
#X connect 9 0 10 0;
#X connect 10 0 8 0;
#X connect 11 0 2 1;
#X connect 12 0 5 0;
#X connect 12 1 9 0;
#X connect 13 0 3 0;
#X restore 212 397 pd makebelnote;
#X obj 215 331 bng 15 250 50 0 empty empty empty 17 7 0 10 -262144
-1 -1;
#N canvas 1002 481 501 471 makebelnote 0;
#X obj 21 15 inlet;
#X obj 85 442 outlet;
#X obj 85 414 pack f f;
#X floatatom 55 229 5 0 0 0 - - -;
#X obj 54 162 bng 15 250 50 0 empty empty empty 17 7 0 10 -262144 -1
-1;
#X obj 54 184 random 7;
#X text 78 246 note;
#X obj 59 267 m_mixolydian 48;
#X obj 196 240 / 100;
#X obj 196 197 random 15;
#X obj 196 219 + 85;
#X obj 196 262 * 127;
#X obj 143 122 t b b;
#X obj 55 208 tabread \$0-cluster2;
#X connect 0 0 12 0;
#X connect 2 0 1 0;
#X connect 3 0 7 0;
#X connect 4 0 5 0;
#X connect 5 0 13 0;
#X connect 7 0 2 0;
#X connect 8 0 11 0;
#X connect 9 0 10 0;
#X connect 10 0 8 0;
#X connect 11 0 2 1;
#X connect 12 0 5 0;
#X connect 12 1 9 0;
#X connect 13 0 3 0;
#X restore 328 405 pd makebelnote;
#X obj 331 339 bng 15 250 50 0 empty empty empty 17 7 0 10 -262144
-1 -1;
#N canvas 1002 481 501 471 makebelnote 0;
#X obj 21 15 inlet;
#X obj 85 442 outlet;
#X obj 85 414 pack f f;
#X floatatom 55 229 5 0 0 0 - - -;
#X obj 54 162 bng 15 250 50 0 empty empty empty 17 7 0 10 -262144 -1
-1;
#X obj 54 184 random 7;
#X text 78 246 note;
#X obj 59 267 m_mixolydian 48;
#X obj 196 240 / 100;
#X obj 196 197 random 15;
#X obj 196 219 + 85;
#X obj 196 262 * 127;
#X obj 143 122 t b b;
#X obj 55 208 tabread \$0-cluster2;
#X connect 0 0 12 0;
#X connect 2 0 1 0;
#X connect 3 0 7 0;
#X connect 4 0 5 0;
#X connect 5 0 13 0;
#X connect 7 0 2 0;
#X connect 8 0 11 0;
#X connect 9 0 10 0;
#X connect 10 0 8 0;
#X connect 11 0 2 1;
#X connect 12 0 5 0;
#X connect 12 1 9 0;
#X connect 13 0 3 0;
#X restore 428 400 pd makebelnote;
#X obj 428 341 bng 15 250 50 0 empty empty empty 17 7 0 10 -262144
-1 -1;
#X obj 49 20 loadbang;
#X obj 48 147 table \$0-cluster2 7;
#X obj 48 126 s \$0-cluster2;
#N canvas 852 386 450 300 counter 0;
#X obj 28 19 inlet;
#X obj 98 73 + 1;
#X floatatom 45 97 5 0 0 0 - - -;
#X msg 95 119 set \$1;
#X obj 95 96 % 4;
#X obj 33 168 sel 0 1 2 3;
#X obj 22 245 outlet;
#X obj 58 242 outlet;
#X obj 102 239 outlet;
#X obj 147 238 outlet;
#X connect 0 0 2 0;
#X connect 1 0 4 0;
#X connect 2 0 1 0;
#X connect 2 0 5 0;
#X connect 3 0 2 0;
#X connect 4 0 3 0;
#X connect 5 0 6 0;
#X connect 5 1 7 0;
#X connect 5 2 8 0;
#X connect 5 3 9 0;
#X restore 43 275 pd counter;
#N canvas 859 247 478 572 choosenotes 0;
#X obj 54 22 inlet;
#X obj 70 535 outlet;
#X obj 58 81 random 19;
#X obj 58 103 - 9;
#X obj 58 130 list append;
#X obj 58 163 list append;
#X obj 68 173 list append;
#X obj 78 183 list append;
#X obj 88 193 list append;
#X obj 98 203 list append;
#X obj 63 52 t b b b b b b b;
#X obj 121 81 random 19;
#X obj 121 103 - 9;
#X obj 185 80 random 19;
#X obj 185 102 - 9;
#X obj 185 131 random 19;
#X obj 185 153 - 9;
#X obj 251 131 random 19;
#X obj 251 153 - 9;
#X obj 317 131 random 19;
#X obj 317 153 - 9;
#X obj 382 130 random 19;
#X obj 382 152 - 9;
#X connect 0 0 10 0;
#X connect 2 0 3 0;
#X connect 3 0 4 0;
#X connect 4 0 5 0;
#X connect 5 0 6 0;
#X connect 6 0 7 0;
#X connect 7 0 8 0;
#X connect 8 0 9 0;
#X connect 9 0 1 0;
#X connect 10 0 2 0;
#X connect 10 1 11 0;
#X connect 10 2 13 0;
#X connect 10 3 15 0;
#X connect 10 4 17 0;
#X connect 10 5 19 0;
#X connect 10 6 21 0;
#X connect 11 0 12 0;
#X connect 12 0 4 1;
#X connect 13 0 14 0;
#X connect 14 0 5 1;
#X connect 15 0 16 0;
#X connect 16 0 6 1;
#X connect 17 0 18 0;
#X connect 18 0 7 1;
#X connect 19 0 20 0;
#X connect 20 0 8 1;
#X connect 21 0 22 0;
#X connect 22 0 9 1;
#X restore 48 103 pd choosenotes;
#X obj 195 212 notein;
#N canvas 1121 64 488 330 note_distribute 0;
#X obj 89 26 inlet;
#X obj 153 27 inlet;
#X obj 45 258 outlet;
#X obj 103 50 pack f f;
#X obj 103 85 stripnote;
#X obj 127 257 outlet;
#X obj 244 260 outlet;
#X obj 313 257 outlet;
#X obj 248 106 + 1;
#X floatatom 195 130 5 0 0 0 - - -;
#X msg 245 152 set \$1;
#X obj 245 129 % 4;
#X obj 195 102 t b;
#X obj 84 210 route 0 1 2 3;
#X obj 98 145 pack f f;
#X obj 123 180 list prepend;
#N canvas 326 601 450 300 sel01 0;
#X obj 122 3 inlet;
#X obj 247 31 sel 0;
#X msg 225 58 0;
#X msg 275 57 1;
#X obj 49 133 spigot;
#X obj 240 5 inlet;
#X obj 47 203 outlet;
#X obj 165 105 tgl 15 0 empty empty empty 17 7 0 10 -262144 -1 -1 1
1;
#X connect 0 0 4 0;
#X connect 1 0 2 0;
#X connect 1 1 3 0;
#X connect 2 0 7 0;
#X connect 3 0 7 0;
#X connect 4 0 6 0;
#X connect 5 0 1 0;
#X connect 7 0 4 1;
#X coords 0 -1 1 1 85 25 1 100 100;
#X restore 231 48 pd sel01;
#X obj 331 23 inlet;
#X obj 340 91 loadbang;
#X msg 335 121 1;
#X connect 0 0 3 0;
#X connect 1 0 3 1;
#X connect 3 0 16 0;
#X connect 4 0 14 0;
#X connect 4 1 12 0;
#X connect 4 1 14 1;
#X connect 8 0 11 0;
#X connect 9 0 8 0;
#X connect 9 0 15 1;
#X connect 10 0 9 0;
#X connect 11 0 10 0;
#X connect 12 0 9 0;
#X connect 13 0 2 0;
#X connect 13 1 5 0;
#X connect 13 2 6 0;
#X connect 13 3 7 0;
#X connect 14 0 15 0;
#X connect 15 0 13 0;
#X connect 16 0 4 0;
#X connect 17 0 16 1;
#X connect 18 0 19 0;
#X connect 19 0 16 1;
#X restore 183 246 pd note_distribute;
#X obj 289 133 r clusterSwitch;
#X obj 289 159 * -1;
#X obj 290 184 + 1;
#X obj 290 215 abs;
#X obj 70 62 r clusterSwitch;
#X obj 70 83 t b;
#X floatatom 316 247 5 0 0 0 - - -;
#X obj 57 41 r randomiseSounds;
#X obj 640 199 r randomiseSounds;
#X obj 643 486 s chooseClusterSound;
#X obj 45 420 r chooseClusterSound;
#X obj 188 420 r chooseClusterSound;
#X obj 315 426 r chooseClusterSound;
#X obj 504 431 r chooseClusterSound;
#X obj 627 174 loadbang;
#X obj 628 282 select 0 1 2 3 4;
#X msg 715 461 block 70.88;
#X msg 714 438 xylo 261.63;
#X msg 721 331 doodoo 100.59;
#X msg 720 356 whirpwhirp 104.12;
#X msg 721 306 yelpyelp 108.21;
#X obj 391 248 r \$0-release;
#X obj 214 599 *~ 0.95;
#X obj 270 598 *~ 0.95;
#X obj 64 440 percsampler;
#X obj 571 203 bng 15 250 50 0 empty empty empty 17 7 0 10 -262144
-1 -1;
#X floatatom 575 282 5 0 0 0 - - -;
#X obj 632 522 r chooseClusterSound;
#X obj 632 544 print PitchedSound;
#X obj 210 443 percsampler;
#X obj 331 449 percsampler;
#X obj 441 455 percsampler;
#X obj 628 257 random 5;
#X connect 0 0 43 0;
#X connect 1 0 0 0;
#X connect 4 0 15 0;
#X connect 6 0 48 0;
#X connect 7 0 6 0;
#X connect 8 0 49 0;
#X connect 9 0 8 0;
#X connect 10 0 50 0;
#X connect 11 0 10 0;
#X connect 12 0 16 0;
#X connect 15 0 1 0;
#X connect 15 1 7 0;
#X connect 15 2 9 0;
#X connect 15 3 11 0;
#X connect 16 0 14 0;
#X connect 17 0 18 0;
#X connect 17 1 18 1;
#X connect 18 0 43 0;
#X connect 18 1 48 0;
#X connect 18 2 49 0;
#X connect 18 3 50 0;
#X connect 19 0 20 0;
#X connect 20 0 21 0;
#X connect 21 0 22 0;
#X connect 22 0 18 2;
#X connect 22 0 25 0;
#X connect 23 0 24 0;
#X connect 24 0 16 0;
#X connect 26 0 16 0;
#X connect 27 0 51 0;
#X connect 29 0 43 3;
#X connect 30 0 48 3;
#X connect 31 0 49 3;
#X connect 32 0 50 3;
#X connect 33 0 51 0;
#X connect 34 0 39 0;
#X connect 34 1 36 0;
#X connect 34 2 37 0;
#X connect 34 3 38 0;
#X connect 34 4 35 0;
#X connect 35 0 28 0;
#X connect 36 0 28 0;
#X connect 37 0 28 0;
#X connect 38 0 28 0;
#X connect 39 0 28 0;
#X connect 40 0 43 2;
#X connect 40 0 48 2;
#X connect 40 0 49 2;
#X connect 40 0 50 2;
#X connect 41 0 2 0;
#X connect 42 0 3 0;
#X connect 43 0 41 0;
#X connect 43 1 42 0;
#X connect 44 0 51 0;
#X connect 46 0 47 0;
#X connect 48 0 41 0;
#X connect 48 1 42 0;
#X connect 49 0 41 0;
#X connect 49 1 42 0;
#X connect 50 0 41 0;
#X connect 50 1 42 0;
#X connect 51 0 34 0;
#X connect 51 0 45 0;
#X restore 149 246 pd tapnotes;
#X obj 218 548 hsl 128 15 0 1 0 0 empty empty empty -2 -8 0 10 -262144
-1 -1 0 1;
#X floatatom 175 599 5 0 0 0 - - -;
#X obj 213 572 * 3000;
#X obj 212 598 s \$0-release;
#N canvas 823 172 593 307 tapFieldSound 0;
#X obj 407 44 r randomiseSounds;
#X obj 407 69 random 3;
#X obj 407 91 sel 0 1 2;
#X obj 441 215 t a;
#X obj 441 241 s newTapSound;
#X msg 440 136 cb1;
#X msg 441 157 ab1;
#X msg 439 180 ff1;
#X obj 72 19 inlet;
#X text 236 42 touchBegan;
#N canvas 975 514 488 330 tap_distribute 0;
#X obj 89 26 inlet;
#X obj 45 258 outlet;
#X obj 127 257 outlet;
#X obj 244 260 outlet;
#X obj 313 257 outlet;
#X obj 248 106 + 1;
#X floatatom 195 130 5 0 0 0 - - -;
#X msg 245 152 set \$1;
#X obj 245 129 % 4;
#X obj 195 102 t b;
#X obj 84 210 route 0 1 2 3;
#X obj 123 180 list prepend;
#X connect 0 0 9 0;
#X connect 0 0 11 0;
#X connect 5 0 8 0;
#X connect 6 0 5 0;
#X connect 6 0 11 1;
#X connect 7 0 6 0;
#X connect 8 0 7 0;
#X connect 9 0 6 0;
#X connect 10 0 1 0;
#X connect 10 1 2 0;
#X connect 10 2 3 0;
#X connect 10 3 4 0;
#X connect 11 0 10 0;
#X restore 72 82 pd tap_distribute;
#X obj 72 112 slicesampler;
#X obj 160 147 r newTapSound;
#X obj 74 202 slicesampler;
#X obj 74 172 slicesampler;
#X obj 72 140 slicesampler;
#X obj 46 233 outlet~;
#X obj 337 43 loadbang;
#X obj 72 61 + 0.1;
#X obj 72 40 * 0.9;
#X connect 0 0 1 0;
#X connect 1 0 2 0;
#X connect 2 0 5 0;
#X connect 2 1 6 0;
#X connect 2 2 7 0;
#X connect 3 0 4 0;
#X connect 5 0 3 0;
#X connect 6 0 3 0;
#X connect 7 0 3 0;
#X connect 8 0 19 0;
#X connect 10 0 11 0;
#X connect 10 1 15 0;
#X connect 10 2 14 0;
#X connect 10 3 13 0;
#X connect 11 0 16 0;
#X connect 12 0 11 1;
#X connect 12 0 13 1;
#X connect 12 0 14 1;
#X connect 12 0 15 1;
#X connect 13 0 16 0;
#X connect 14 0 16 0;
#X connect 15 0 16 0;
#X connect 17 0 1 0;
#X connect 18 0 10 0;
#X connect 19 0 18 0;
#X restore 784 247 pd tapFieldSound;
#X obj 417 534 loadbang;
#X obj 415 556 delay 2000;
#X obj 606 577 s panstarted;
#X obj 608 601 s touchvelocity;
#X obj 702 542 bng 15 250 50 0 empty empty empty 17 7 0 10 -262144
-1 -1;
#X obj 705 567 s touchended;
#X obj 178 524 r pitchRelease;
#X msg 625 545 0.7;
#X obj 125 231 bng 15 250 50 0 empty empty empty 17 7 0 10 -262144
-1 -1;
#X msg 608 473 0.4;
#X msg 624 511 1;
#X msg 654 482 0.99;
#N canvas 898 337 450 300 loop 0;
#X obj 79 136 list prepend loop;
#X obj 67 161 list;
#X obj 67 182 list trim;
#X obj 31 20 inlet;
#X obj 124 19 inlet;
#X obj 60 229 outlet;
#X connect 0 0 1 1;
#X connect 1 0 2 0;
#X connect 2 0 5 0;
#X connect 3 0 1 0;
#X connect 4 0 0 0;
#X restore 179 265 pd loop;
#X obj 699 394 vsl 15 128 0 1 0 0 empty empty empty 0 -9 0 10 -262144
-1 -1 0 1;
#X floatatom 740 491 5 0 0 0 - - -;
#X connect 2 0 40 0;
#X connect 3 0 8 0;
#X connect 4 0 8 0;
#X connect 5 0 8 0;
#X connect 6 0 8 0;
#X connect 7 0 8 0;
#X connect 9 0 25 1;
#X connect 10 0 25 2;
#X connect 11 0 12 0;
#X connect 12 0 13 0;
#X connect 13 0 35 0;
#X connect 14 0 19 0;
#X connect 14 0 23 0;
#X connect 14 1 23 1;
#X connect 15 0 16 0;
#X connect 15 0 17 0;
#X connect 17 0 14 0;
#X connect 19 0 23 0;
#X connect 19 1 23 1;
#X connect 20 0 21 0;
#X connect 20 0 22 0;
#X connect 22 0 34 0;
#X connect 24 0 29 0;
#X connect 25 0 23 0;
#X connect 25 1 23 1;
#X connect 26 0 22 1;
#X connect 26 0 34 1;
#X connect 27 0 17 1;
#X connect 28 0 13 1;
#X connect 30 0 31 0;
#X connect 32 0 25 0;
#X connect 34 0 19 0;
#X connect 34 0 23 0;
#X connect 34 1 23 1;
#X connect 35 0 19 0;
#X connect 35 0 23 0;
#X connect 35 1 23 1;
#X connect 36 0 38 0;
#X connect 38 0 37 0;
#X connect 38 0 39 0;
#X connect 40 0 23 0;
#X connect 40 0 23 1;
#X connect 41 0 42 0;
#X connect 42 0 31 0;
#X connect 45 0 46 0;
#X connect 47 0 38 0;
#X connect 48 0 43 0;
#X connect 48 0 44 0;
#X connect 49 0 35 0;
#X connect 50 0 43 0;
#X connect 50 0 44 0;
#X connect 51 0 43 0;
#X connect 51 0 44 0;
#X connect 52 0 43 0;
#X connect 54 0 55 0;
#X connect 54 0 44 0;
