#N canvas 654 197 984 637 10;
#X declare -path .;
#X declare -path rj;
#X declare -path percsamples;
#X declare -path .;
#X declare -path rj;
#X declare -path .;
#X declare -path rj;
#X declare -path .;
#X declare -path rj;
#X declare -path .;
#X declare -path rj;
#X declare -path cpmlibs;
#X declare -path fieldrecordings;
#X obj 30 16 declare -path .;
#X obj 30 43 declare -path rj;
#X obj 35 79 r touch;
#X obj 704 194 r tapdistance;
#X obj 704 215 t b f;
#X msg 706 53 0;
#X msg 708 82 0.1;
#X msg 706 108 0.5;
#X msg 705 132 1;
#X msg 705 156 1.1;
#X obj 775 94 s tapdistance;
#X obj 796 256 r touchended;
#X obj 749 235 r touchvelocity;
#N canvas 727 49 477 425 clustermetro 0;
#X obj 303 241 bng 15 250 50 0 empty empty empty 17 7 0 10 -262144
-1 -1;
#X obj 247 264 + 1;
#X obj 211 109 t b b b b;
#X obj 201 15 bng 15 250 50 0 empty empty empty 17 7 0 10 -262144 -1
-1;
#X floatatom 256 287 5 0 0 0 - - -;
#X obj 247 244 random 6;
#X obj 67 123 delay 1000;
#X obj 66 97 random 8000;
#X obj 192 324 c_multimetro 16 200;
#X obj 192 298 tgl 15 0 empty empty empty 17 7 0 10 -262144 -1 -1 1
1;
#X obj 91 319 delay 10;
#X msg 149 325 stop;
#X floatatom 89 252 5 0 0 0 - - -;
#X obj 89 276 sel 15;
#X obj 83 299 bng 15 250 50 0 empty empty empty 17 7 0 10 -262144 -1
-1;
#X obj 102 297 t b;
#X msg 192 277 1;
#X obj 223 13 loadbang;
#X obj 192 346 outlet;
#X obj 157 14 inlet;
#N canvas 1012 38 445 814 createclusterrhythm 0;
#X obj 78 50 inlet;
#X obj 52 778 outlet;
#X obj 167 167 random 1000;
#X obj 167 187 + 50;
#X obj 68 140 t b b b b b b b b;
#X obj 148 211 random 1000;
#X obj 148 231 + 50;
#X obj 143 257 random 1000;
#X obj 143 277 + 50;
#X obj 122 296 random 1000;
#X obj 122 316 + 50;
#X obj 113 338 random 1000;
#X obj 113 358 + 50;
#X obj 104 382 random 1000;
#X obj 104 402 + 50;
#X obj 94 424 random 1000;
#X obj 94 444 + 50;
#X obj 93 478 list append;
#X obj 92 500 list append;
#X obj 95 522 list append;
#X obj 96 544 list append;
#X obj 94 567 list append;
#X obj 95 592 list append;
#X connect 0 0 4 0;
#X connect 2 0 3 0;
#X connect 3 0 22 1;
#X connect 4 1 15 0;
#X connect 4 2 13 0;
#X connect 4 3 11 0;
#X connect 4 4 9 0;
#X connect 4 5 7 0;
#X connect 4 6 5 0;
#X connect 4 7 2 0;
#X connect 5 0 6 0;
#X connect 6 0 21 1;
#X connect 7 0 8 0;
#X connect 8 0 20 1;
#X connect 9 0 10 0;
#X connect 10 0 19 1;
#X connect 11 0 12 0;
#X connect 12 0 18 1;
#X connect 13 0 14 0;
#X connect 14 0 17 1;
#X connect 15 0 16 0;
#X connect 16 0 17 0;
#X connect 17 0 18 0;
#X connect 18 0 19 0;
#X connect 19 0 20 0;
#X connect 20 0 21 0;
#X connect 21 0 22 0;
#X connect 22 0 1 0;
#X restore 303 262 pd createclusterrhythm;
#X obj 348 352 print rhythm:;
#X obj 46 124 bng 15 250 50 0 empty empty empty 17 7 0 10 -262144 -1
-1;
#X obj 345 321 spigot;
#X obj 374 293 tgl 15 0 empty empty empty 17 7 0 10 -262144 -1 -1 0
1;
#X connect 0 0 20 0;
#X connect 1 0 8 1;
#X connect 1 0 4 0;
#X connect 2 0 7 0;
#X connect 2 1 16 0;
#X connect 2 2 5 0;
#X connect 2 3 0 0;
#X connect 3 0 2 0;
#X connect 5 0 1 0;
#X connect 5 0 13 1;
#X connect 6 0 2 0;
#X connect 6 0 22 0;
#X connect 7 0 6 1;
#X connect 8 0 12 0;
#X connect 8 0 18 0;
#X connect 9 0 8 0;
#X connect 10 0 11 0;
#X connect 10 0 6 0;
#X connect 11 0 8 0;
#X connect 12 0 13 0;
#X connect 13 0 14 0;
#X connect 13 0 15 0;
#X connect 15 0 10 0;
#X connect 16 0 9 0;
#X connect 17 0 2 0;
#X connect 19 0 2 0;
#X connect 20 0 8 2;
#X connect 20 0 23 0;
#X connect 23 0 21 0;
#X connect 24 0 23 1;
#X restore 132 193 pd clustermetro;
#X obj 112 194 bng 15 250 50 0 empty empty empty 17 7 0 10 -262144
-1 -1;
#N canvas 326 601 450 300 sel01 0;
#X obj 122 3 inlet;
#X obj 247 31 sel 0;
#X msg 225 58 0;
#X msg 275 57 1;
#X obj 49 133 spigot;
#X obj 240 5 inlet;
#X obj 47 203 outlet;
#X obj 165 105 tgl 15 0 empty empty empty 17 7 0 10 -262144 -1 -1 0
1;
#X connect 0 0 4 0;
#X connect 1 0 2 0;
#X connect 1 1 3 0;
#X connect 2 0 7 0;
#X connect 3 0 7 0;
#X connect 4 0 6 0;
#X connect 5 0 1 0;
#X connect 7 0 4 1;
#X coords 0 -1 1 1 85 25 1 100 100;
#X restore 155 217 pd sel01;
#N canvas 1040 574 806 369 cymbals 0;
#X obj 107 34 inlet;
#X obj 673 31 inlet;
#X obj 319 304 outlet~;
#X obj 369 303 outlet~;
#X obj 174 167 bng 15 250 50 0 empty empty empty 17 7 0 10 -262144
-1 -1;
#X floatatom 672 53 5 0 0 0 - - -;
#X obj 107 54 t b;
#X text 107 13 note;
#X text 667 7 note length;
#X text 495 255 volume;
#X obj 498 272 inlet;
#X obj 333 249 g_vol2;
#X obj 499 301 / 100;
#X obj 438 258 loadbang;
#X obj 440 308 * 1;
#X msg 438 280 97;
#N canvas 852 386 450 300 counter 0;
#X obj 28 19 inlet;
#X obj 98 73 + 1;
#X floatatom 45 97 5 0 0 0 - - -;
#X msg 95 119 set \$1;
#X obj 95 96 % 4;
#X obj 33 168 sel 0 1 2 3;
#X obj 22 245 outlet;
#X obj 58 242 outlet;
#X obj 102 239 outlet;
#X obj 147 238 outlet;
#X connect 0 0 2 0;
#X connect 1 0 4 0;
#X connect 2 0 1 0;
#X connect 2 0 5 0;
#X connect 3 0 2 0;
#X connect 4 0 3 0;
#X connect 5 0 6 0;
#X connect 5 1 7 0;
#X connect 5 2 8 0;
#X connect 5 3 9 0;
#X restore 292 65 pd counter;
#X obj 295 168 bng 15 250 50 0 empty empty empty 17 7 0 10 -262144
-1 -1;
#X obj 452 160 bng 15 250 50 0 empty empty empty 17 7 0 10 -262144
-1 -1;
#X obj 393 19 notein;
#N canvas 1026 543 488 330 note_distribute 0;
#X obj 89 26 inlet;
#X obj 153 27 inlet;
#X obj 45 258 outlet;
#X obj 103 50 pack f f;
#X obj 103 85 stripnote;
#X obj 127 257 outlet;
#X obj 244 260 outlet;
#X obj 313 257 outlet;
#X obj 248 106 + 1;
#X floatatom 195 130 5 0 0 0 - - -;
#X msg 245 152 set \$1;
#X obj 245 129 % 4;
#X obj 195 102 t b;
#X obj 84 210 route 0 1 2 3;
#X obj 98 145 pack f f;
#X obj 123 180 list prepend;
#N canvas 326 601 450 300 sel01 0;
#X obj 122 3 inlet;
#X obj 247 31 sel 0;
#X msg 225 58 0;
#X msg 275 57 1;
#X obj 49 133 spigot;
#X obj 240 5 inlet;
#X obj 47 203 outlet;
#X obj 165 105 tgl 15 0 empty empty empty 17 7 0 10 -262144 -1 -1 0
1;
#X connect 0 0 4 0;
#X connect 1 0 2 0;
#X connect 1 1 3 0;
#X connect 2 0 7 0;
#X connect 3 0 7 0;
#X connect 4 0 6 0;
#X connect 5 0 1 0;
#X connect 7 0 4 1;
#X coords 0 -1 1 1 85 25 1 100 100;
#X restore 231 48 pd sel01;
#X obj 331 23 inlet;
#X obj 340 91 loadbang;
#X msg 335 121 0;
#X connect 0 0 3 0;
#X connect 1 0 3 1;
#X connect 3 0 16 0;
#X connect 4 0 14 0;
#X connect 4 1 12 0;
#X connect 4 1 14 1;
#X connect 8 0 11 0;
#X connect 9 0 8 0;
#X connect 9 0 15 1;
#X connect 10 0 9 0;
#X connect 11 0 10 0;
#X connect 12 0 9 0;
#X connect 13 0 2 0;
#X connect 13 1 5 0;
#X connect 13 2 6 0;
#X connect 13 3 7 0;
#X connect 14 0 15 0;
#X connect 15 0 13 0;
#X connect 16 0 4 0;
#X connect 17 0 16 1;
#X connect 18 0 19 0;
#X connect 19 0 16 1;
#X restore 376 52 pd note_distribute;
#N canvas 229 184 620 665 cymbalSynth 0;
#X obj 32 16 inlet;
#X text 78 15 note velocity pairs;
#X obj 247 14 inlet;
#X text 288 14 random note bangs;
#X obj 32 41 unpack 0 0;
#X obj 64 62 / 127;
#X obj 64 85 s \$0-vel;
#X obj 402 129 bng 15 250 50 0 empty empty empty 17 7 0 10 -262144
-1 -1;
#X obj 57 399 *~;
#N canvas 227 330 516 558 env_perc_long 0;
#X obj 198 434 outlet~;
#X obj 13 16 inlet;
#X obj 196 327 / 127;
#X obj 196 366 t a a;
#X obj 157 260 * 127;
#X obj 117 259 t b a;
#X msg 116 280 60;
#X obj 349 21 inlet;
#X text 340 43 volume (0-1);
#X text 59 15 trigger - start envelope;
#X msg 118 153 1;
#X obj 118 131 t b;
#X obj 133 175 *;
#X obj 159 157 loadbang;
#X msg 159 176 1;
#X text 226 160 handle the volume scaling.;
#X text 249 287 setup a midi note (on then off);
#X text 325 355 calculate and send the env;
#X text 41 515 percussive envelope generator - cpm 2012;
#X obj 120 299 makenote 60 2000;
#X obj 435 20 inlet;
#X text 434 44 duration;
#X obj 198 411 c_adsr 1 300 2000 0 2000;
#X text 76 39 handle negative input to close env;
#X connect 1 0 11 0;
#X connect 2 0 3 0;
#X connect 3 0 22 0;
#X connect 3 1 22 1;
#X connect 4 0 19 1;
#X connect 5 0 6 0;
#X connect 5 1 4 0;
#X connect 6 0 19 0;
#X connect 7 0 12 1;
#X connect 10 0 12 0;
#X connect 11 0 10 0;
#X connect 12 0 5 0;
#X connect 13 0 14 0;
#X connect 14 0 12 1;
#X connect 19 1 2 0;
#X connect 20 0 19 2;
#X connect 20 0 22 3;
#X connect 22 0 0 0;
#X restore 147 376 pd env_perc_long;
#X obj 277 344 loadbang;
#X msg 265 368 1000;
#X obj 53 366 s_playtable;
#X obj 403 201 / 100;
#X obj 53 281 list prepend 1;
#X obj 53 302 list prepend 0-cym;
#X obj 403 225 + 0.1;
#X obj 194 230 select 0 1;
#X obj 193 206 random 3;
#X floatatom 278 221 5 0 0 0 - - -;
#X msg 103 344 sr 44100;
#X obj 101 323 loadbang;
#X obj 163 353 r \$0-vel;
#X obj 33 108 t a b b;
#X obj 35 191 / 130.8;
#X obj 35 170 mtof;
#X obj 35 214 * 1;
#X obj 86 192 / 1000;
#X obj 85 172 random 15;
#X obj 85 212 + 0.99;
#X obj 33 140 t a b;
#X text 144 139 note;
#X obj 403 150 t b b b b;
#X msg 494 180 1;
#X obj 34 470 outlet~;
#X obj 102 470 outlet~;
#X obj 403 176 random 150;
#X msg 183 270 ab2;
#X msg 224 269 cb2;
#X msg 271 269 ff2;
#X connect 0 0 4 0;
#X connect 2 0 32 0;
#X connect 4 0 23 0;
#X connect 4 1 5 0;
#X connect 5 0 6 0;
#X connect 7 0 32 0;
#X connect 8 0 34 0;
#X connect 8 0 35 0;
#X connect 9 0 8 1;
#X connect 10 0 11 0;
#X connect 11 0 9 2;
#X connect 12 0 8 0;
#X connect 13 0 16 0;
#X connect 14 0 15 0;
#X connect 15 0 12 0;
#X connect 16 0 14 0;
#X connect 17 0 37 0;
#X connect 17 1 38 0;
#X connect 17 2 39 0;
#X connect 18 0 17 0;
#X connect 18 0 19 0;
#X connect 20 0 12 1;
#X connect 21 0 20 0;
#X connect 22 0 9 1;
#X connect 23 0 30 0;
#X connect 23 1 9 0;
#X connect 23 2 18 0;
#X connect 24 0 26 0;
#X connect 25 0 24 0;
#X connect 26 0 14 0;
#X connect 27 0 29 0;
#X connect 28 0 27 0;
#X connect 29 0 26 1;
#X connect 30 0 25 0;
#X connect 30 1 28 0;
#X connect 32 0 36 0;
#X connect 32 1 9 0;
#X connect 32 2 18 0;
#X connect 32 3 33 0;
#X connect 33 0 9 1;
#X connect 36 0 13 0;
#X connect 37 0 15 1;
#X connect 38 0 15 1;
#X connect 39 0 15 1;
#X restore 96 194 pd cymbalSynth;
#N canvas 498 149 620 665 cymbalSynth 0;
#X obj 32 16 inlet;
#X text 78 15 note velocity pairs;
#X obj 247 14 inlet;
#X text 288 14 random note bangs;
#X obj 32 41 unpack 0 0;
#X obj 64 62 / 127;
#X obj 64 85 s \$0-vel;
#X obj 402 129 bng 15 250 50 0 empty empty empty 17 7 0 10 -262144
-1 -1;
#X obj 57 399 *~;
#N canvas 227 330 516 558 env_perc_long 0;
#X obj 198 434 outlet~;
#X obj 13 16 inlet;
#X obj 196 327 / 127;
#X obj 196 366 t a a;
#X obj 157 260 * 127;
#X obj 117 259 t b a;
#X msg 116 280 60;
#X obj 349 21 inlet;
#X text 340 43 volume (0-1);
#X text 59 15 trigger - start envelope;
#X msg 118 153 1;
#X obj 118 131 t b;
#X obj 133 175 *;
#X obj 159 157 loadbang;
#X msg 159 176 1;
#X text 226 160 handle the volume scaling.;
#X text 249 287 setup a midi note (on then off);
#X text 325 355 calculate and send the env;
#X text 41 515 percussive envelope generator - cpm 2012;
#X obj 120 299 makenote 60 2000;
#X obj 435 20 inlet;
#X text 434 44 duration;
#X obj 198 411 c_adsr 1 300 2000 0 2000;
#X text 76 39 handle negative input to close env;
#X connect 1 0 11 0;
#X connect 2 0 3 0;
#X connect 3 0 22 0;
#X connect 3 1 22 1;
#X connect 4 0 19 1;
#X connect 5 0 6 0;
#X connect 5 1 4 0;
#X connect 6 0 19 0;
#X connect 7 0 12 1;
#X connect 10 0 12 0;
#X connect 11 0 10 0;
#X connect 12 0 5 0;
#X connect 13 0 14 0;
#X connect 14 0 12 1;
#X connect 19 1 2 0;
#X connect 20 0 19 2;
#X connect 20 0 22 3;
#X connect 22 0 0 0;
#X restore 147 376 pd env_perc_long;
#X obj 277 344 loadbang;
#X msg 265 368 1000;
#X obj 53 366 s_playtable;
#X obj 403 201 / 100;
#X obj 53 281 list prepend 1;
#X obj 53 302 list prepend 0-cym;
#X obj 403 225 + 0.1;
#X obj 194 230 select 0 1;
#X obj 193 206 random 3;
#X floatatom 278 221 5 0 0 0 - - -;
#X msg 103 344 sr 44100;
#X obj 101 323 loadbang;
#X obj 163 353 r \$0-vel;
#X obj 33 108 t a b b;
#X obj 35 191 / 130.8;
#X obj 35 170 mtof;
#X obj 35 214 * 1;
#X obj 86 192 / 1000;
#X obj 85 172 random 15;
#X obj 85 212 + 0.99;
#X obj 33 140 t a b;
#X text 144 139 note;
#X obj 403 150 t b b b b;
#X msg 494 180 1;
#X obj 34 470 outlet~;
#X obj 102 470 outlet~;
#X obj 403 176 random 150;
#X msg 183 270 ab1;
#X msg 224 269 cb1;
#X msg 271 269 ff1;
#X connect 0 0 4 0;
#X connect 2 0 32 0;
#X connect 4 0 23 0;
#X connect 4 1 5 0;
#X connect 5 0 6 0;
#X connect 7 0 32 0;
#X connect 8 0 34 0;
#X connect 8 0 35 0;
#X connect 9 0 8 1;
#X connect 10 0 11 0;
#X connect 11 0 9 2;
#X connect 12 0 8 0;
#X connect 13 0 16 0;
#X connect 14 0 15 0;
#X connect 15 0 12 0;
#X connect 16 0 14 0;
#X connect 17 0 37 0;
#X connect 17 1 38 0;
#X connect 17 2 39 0;
#X connect 18 0 17 0;
#X connect 18 0 19 0;
#X connect 20 0 12 1;
#X connect 21 0 20 0;
#X connect 22 0 9 1;
#X connect 23 0 30 0;
#X connect 23 1 9 0;
#X connect 23 2 18 0;
#X connect 24 0 26 0;
#X connect 25 0 24 0;
#X connect 26 0 14 0;
#X connect 27 0 29 0;
#X connect 28 0 27 0;
#X connect 29 0 26 1;
#X connect 30 0 25 0;
#X connect 30 1 28 0;
#X connect 32 0 36 0;
#X connect 32 1 9 0;
#X connect 32 2 18 0;
#X connect 32 3 33 0;
#X connect 33 0 9 1;
#X connect 36 0 13 0;
#X connect 37 0 15 1;
#X connect 38 0 15 1;
#X connect 39 0 15 1;
#X restore 244 202 pd cymbalSynth;
#N canvas 374 229 620 665 cymbalSynth 0;
#X obj 32 16 inlet;
#X text 78 15 note velocity pairs;
#X obj 247 14 inlet;
#X text 288 14 random note bangs;
#X obj 32 41 unpack 0 0;
#X obj 64 62 / 127;
#X obj 64 85 s \$0-vel;
#X obj 402 129 bng 15 250 50 0 empty empty empty 17 7 0 10 -262144
-1 -1;
#X obj 57 399 *~;
#N canvas 227 330 516 558 env_perc_long 0;
#X obj 198 434 outlet~;
#X obj 13 16 inlet;
#X obj 196 327 / 127;
#X obj 196 366 t a a;
#X obj 157 260 * 127;
#X obj 117 259 t b a;
#X msg 116 280 60;
#X obj 349 21 inlet;
#X text 340 43 volume (0-1);
#X text 59 15 trigger - start envelope;
#X msg 118 153 1;
#X obj 118 131 t b;
#X obj 133 175 *;
#X obj 159 157 loadbang;
#X msg 159 176 1;
#X text 226 160 handle the volume scaling.;
#X text 249 287 setup a midi note (on then off);
#X text 325 355 calculate and send the env;
#X text 41 515 percussive envelope generator - cpm 2012;
#X obj 120 299 makenote 60 2000;
#X obj 435 20 inlet;
#X text 434 44 duration;
#X obj 198 411 c_adsr 1 300 2000 0 2000;
#X text 76 39 handle negative input to close env;
#X connect 1 0 11 0;
#X connect 2 0 3 0;
#X connect 3 0 22 0;
#X connect 3 1 22 1;
#X connect 4 0 19 1;
#X connect 5 0 6 0;
#X connect 5 1 4 0;
#X connect 6 0 19 0;
#X connect 7 0 12 1;
#X connect 10 0 12 0;
#X connect 11 0 10 0;
#X connect 12 0 5 0;
#X connect 13 0 14 0;
#X connect 14 0 12 1;
#X connect 19 1 2 0;
#X connect 20 0 19 2;
#X connect 20 0 22 3;
#X connect 22 0 0 0;
#X restore 147 376 pd env_perc_long;
#X obj 277 344 loadbang;
#X msg 265 368 1000;
#X obj 53 366 s_playtable;
#X obj 403 201 / 100;
#X obj 53 281 list prepend 1;
#X obj 53 302 list prepend 0-cym;
#X obj 403 225 + 0.1;
#X obj 194 230 select 0 1;
#X obj 193 206 random 3;
#X floatatom 278 221 5 0 0 0 - - -;
#X msg 103 344 sr 44100;
#X obj 101 323 loadbang;
#X obj 163 353 r \$0-vel;
#X obj 33 108 t a b b;
#X obj 35 191 / 130.8;
#X obj 35 170 mtof;
#X obj 35 214 * 1;
#X obj 86 192 / 1000;
#X obj 85 172 random 15;
#X obj 85 212 + 0.99;
#X obj 33 140 t a b;
#X text 144 139 note;
#X obj 403 150 t b b b b;
#X msg 494 180 1;
#X obj 34 470 outlet~;
#X obj 102 470 outlet~;
#X obj 403 176 random 150;
#X msg 183 270 pitea;
#X msg 224 269 stream;
#X msg 271 269 d1;
#X connect 0 0 4 0;
#X connect 2 0 32 0;
#X connect 4 0 23 0;
#X connect 4 1 5 0;
#X connect 5 0 6 0;
#X connect 7 0 32 0;
#X connect 8 0 34 0;
#X connect 8 0 35 0;
#X connect 9 0 8 1;
#X connect 10 0 11 0;
#X connect 11 0 9 2;
#X connect 12 0 8 0;
#X connect 13 0 16 0;
#X connect 14 0 15 0;
#X connect 15 0 12 0;
#X connect 16 0 14 0;
#X connect 17 0 37 0;
#X connect 17 1 38 0;
#X connect 17 2 39 0;
#X connect 18 0 17 0;
#X connect 18 0 19 0;
#X connect 20 0 12 1;
#X connect 21 0 20 0;
#X connect 22 0 9 1;
#X connect 23 0 30 0;
#X connect 23 1 9 0;
#X connect 23 2 18 0;
#X connect 24 0 26 0;
#X connect 25 0 24 0;
#X connect 26 0 14 0;
#X connect 27 0 29 0;
#X connect 28 0 27 0;
#X connect 29 0 26 1;
#X connect 30 0 25 0;
#X connect 30 1 28 0;
#X connect 32 0 36 0;
#X connect 32 1 9 0;
#X connect 32 2 18 0;
#X connect 32 3 33 0;
#X connect 33 0 9 1;
#X connect 36 0 13 0;
#X connect 37 0 15 1;
#X connect 38 0 15 1;
#X connect 39 0 15 1;
#X restore 394 198 pd cymbalSynth;
#N canvas 374 229 620 665 cymbalSynth 0;
#X obj 32 16 inlet;
#X text 78 15 note velocity pairs;
#X obj 247 14 inlet;
#X text 288 14 random note bangs;
#X obj 32 41 unpack 0 0;
#X obj 64 62 / 127;
#X obj 64 85 s \$0-vel;
#X obj 402 129 bng 15 250 50 0 empty empty empty 17 7 0 10 -262144
-1 -1;
#X obj 57 399 *~;
#N canvas 227 330 516 558 env_perc_long 0;
#X obj 198 434 outlet~;
#X obj 13 16 inlet;
#X obj 196 327 / 127;
#X obj 196 366 t a a;
#X obj 157 260 * 127;
#X obj 117 259 t b a;
#X msg 116 280 60;
#X obj 349 21 inlet;
#X text 340 43 volume (0-1);
#X text 59 15 trigger - start envelope;
#X msg 118 153 1;
#X obj 118 131 t b;
#X obj 133 175 *;
#X obj 159 157 loadbang;
#X msg 159 176 1;
#X text 226 160 handle the volume scaling.;
#X text 249 287 setup a midi note (on then off);
#X text 325 355 calculate and send the env;
#X text 41 515 percussive envelope generator - cpm 2012;
#X obj 120 299 makenote 60 2000;
#X obj 435 20 inlet;
#X text 434 44 duration;
#X obj 198 411 c_adsr 1 300 2000 0 2000;
#X text 76 39 handle negative input to close env;
#X connect 1 0 11 0;
#X connect 2 0 3 0;
#X connect 3 0 22 0;
#X connect 3 1 22 1;
#X connect 4 0 19 1;
#X connect 5 0 6 0;
#X connect 5 1 4 0;
#X connect 6 0 19 0;
#X connect 7 0 12 1;
#X connect 10 0 12 0;
#X connect 11 0 10 0;
#X connect 12 0 5 0;
#X connect 13 0 14 0;
#X connect 14 0 12 1;
#X connect 19 1 2 0;
#X connect 20 0 19 2;
#X connect 20 0 22 3;
#X connect 22 0 0 0;
#X restore 147 376 pd env_perc_long;
#X obj 277 344 loadbang;
#X msg 265 368 1000;
#X obj 53 366 s_playtable;
#X obj 403 201 / 100;
#X obj 53 281 list prepend 1;
#X obj 53 302 list prepend 0-cym;
#X obj 403 225 + 0.1;
#X obj 194 230 select 0 1;
#X obj 193 206 random 3;
#X floatatom 278 221 5 0 0 0 - - -;
#X msg 103 344 sr 44100;
#X obj 101 323 loadbang;
#X obj 163 353 r \$0-vel;
#X obj 33 108 t a b b;
#X obj 35 191 / 130.8;
#X obj 35 170 mtof;
#X obj 35 214 * 1;
#X obj 86 192 / 1000;
#X obj 85 172 random 15;
#X obj 85 212 + 0.99;
#X obj 33 140 t a b;
#X text 144 139 note;
#X obj 403 150 t b b b b;
#X msg 494 180 1;
#X obj 34 470 outlet~;
#X obj 102 470 outlet~;
#X obj 403 176 random 150;
#X msg 183 270 ab3;
#X msg 225 269 cb3;
#X msg 271 269 ff3;
#X connect 0 0 4 0;
#X connect 2 0 32 0;
#X connect 4 0 23 0;
#X connect 4 1 5 0;
#X connect 5 0 6 0;
#X connect 7 0 32 0;
#X connect 8 0 34 0;
#X connect 8 0 35 0;
#X connect 9 0 8 1;
#X connect 10 0 11 0;
#X connect 11 0 9 2;
#X connect 12 0 8 0;
#X connect 13 0 16 0;
#X connect 14 0 15 0;
#X connect 15 0 12 0;
#X connect 16 0 14 0;
#X connect 17 0 37 0;
#X connect 17 1 38 0;
#X connect 17 2 39 0;
#X connect 18 0 17 0;
#X connect 18 0 19 0;
#X connect 20 0 12 1;
#X connect 21 0 20 0;
#X connect 22 0 9 1;
#X connect 23 0 30 0;
#X connect 23 1 9 0;
#X connect 23 2 18 0;
#X connect 24 0 26 0;
#X connect 25 0 24 0;
#X connect 26 0 14 0;
#X connect 27 0 29 0;
#X connect 28 0 27 0;
#X connect 29 0 26 1;
#X connect 30 0 25 0;
#X connect 30 1 28 0;
#X connect 32 0 36 0;
#X connect 32 1 9 0;
#X connect 32 2 18 0;
#X connect 32 3 33 0;
#X connect 33 0 9 1;
#X connect 36 0 13 0;
#X connect 37 0 15 1;
#X connect 38 0 15 1;
#X connect 39 0 15 1;
#X restore 530 202 pd cymbalSynth;
#X obj 587 166 bng 15 250 50 0 empty empty empty 17 7 0 10 -262144
-1 -1;
#X obj 470 18 r autoField;
#X connect 0 0 6 0;
#X connect 1 0 5 0;
#X connect 4 0 21 1;
#X connect 6 0 16 0;
#X connect 10 0 12 0;
#X connect 11 0 2 0;
#X connect 11 1 3 0;
#X connect 12 0 14 0;
#X connect 13 0 15 0;
#X connect 14 0 11 2;
#X connect 15 0 14 0;
#X connect 16 0 4 0;
#X connect 16 1 17 0;
#X connect 16 2 18 0;
#X connect 16 3 25 0;
#X connect 17 0 22 1;
#X connect 18 0 23 1;
#X connect 19 0 20 0;
#X connect 19 1 20 1;
#X connect 20 0 21 0;
#X connect 20 1 22 0;
#X connect 20 2 23 0;
#X connect 20 3 24 0;
#X connect 21 0 11 0;
#X connect 21 1 11 1;
#X connect 22 0 11 0;
#X connect 22 1 11 1;
#X connect 23 0 11 0;
#X connect 23 1 11 1;
#X connect 24 0 11 0;
#X connect 24 1 11 1;
#X connect 25 0 24 1;
#X connect 26 0 20 2;
#X restore 289 246 pd cymbals;
#N canvas 727 49 477 425 clustermetro 0;
#X obj 303 241 bng 15 250 50 0 empty empty empty 17 7 0 10 -262144
-1 -1;
#X obj 247 264 + 1;
#X obj 211 109 t b b b b;
#X obj 201 15 bng 15 250 50 0 empty empty empty 17 7 0 10 -262144 -1
-1;
#X floatatom 256 287 5 0 0 0 - - -;
#X obj 247 244 random 6;
#X obj 67 123 delay 1000;
#X obj 192 324 c_multimetro 16 200;
#X obj 192 298 tgl 15 0 empty empty empty 17 7 0 10 -262144 -1 -1 1
1;
#X obj 91 319 delay 10;
#X msg 149 325 stop;
#X floatatom 89 252 5 0 0 0 - - -;
#X obj 89 276 sel 15;
#X obj 83 299 bng 15 250 50 0 empty empty empty 17 7 0 10 -262144 -1
-1;
#X obj 102 297 t b;
#X msg 192 277 1;
#X obj 223 13 loadbang;
#X obj 192 346 outlet;
#X obj 157 14 inlet;
#N canvas 1012 38 445 814 createclusterrhythm 0;
#X obj 78 50 inlet;
#X obj 52 778 outlet;
#X obj 68 140 t b b b b b b b b;
#X obj 93 478 list append;
#X obj 92 500 list append;
#X obj 95 522 list append;
#X obj 96 544 list append;
#X obj 94 567 list append;
#X obj 95 592 list append;
#X obj 167 187 + 200;
#X obj 148 231 + 200;
#X obj 143 277 + 200;
#X obj 122 316 + 200;
#X obj 113 358 + 200;
#X obj 104 402 + 200;
#X obj 94 444 + 200;
#X obj 167 167 random 4000;
#X obj 148 211 random 4000;
#X obj 143 257 random 4000;
#X obj 122 296 random 4000;
#X obj 113 338 random 4000;
#X obj 104 382 random 4000;
#X obj 94 424 random 4000;
#X connect 0 0 2 0;
#X connect 2 1 22 0;
#X connect 2 2 21 0;
#X connect 2 3 20 0;
#X connect 2 4 19 0;
#X connect 2 5 18 0;
#X connect 2 6 17 0;
#X connect 2 7 16 0;
#X connect 3 0 4 0;
#X connect 4 0 5 0;
#X connect 5 0 6 0;
#X connect 6 0 7 0;
#X connect 7 0 8 0;
#X connect 8 0 1 0;
#X connect 9 0 8 1;
#X connect 10 0 7 1;
#X connect 11 0 6 1;
#X connect 12 0 5 1;
#X connect 13 0 4 1;
#X connect 14 0 3 1;
#X connect 15 0 3 0;
#X connect 16 0 9 0;
#X connect 17 0 10 0;
#X connect 18 0 11 0;
#X connect 19 0 12 0;
#X connect 20 0 13 0;
#X connect 21 0 14 0;
#X connect 22 0 15 0;
#X restore 303 262 pd createclusterrhythm;
#X obj 348 352 print rhythm:;
#X obj 46 124 bng 15 250 50 0 empty empty empty 17 7 0 10 -262144 -1
-1;
#X obj 345 321 spigot;
#X obj 374 293 tgl 15 0 empty empty empty 17 7 0 10 -262144 -1 -1 0
1;
#X text 40 73 timer for calculating new cycle;
#X text 329 235 creates the rhythm;
#X obj 66 97 random 20000;
#X connect 0 0 19 0;
#X connect 1 0 7 1;
#X connect 1 0 4 0;
#X connect 2 0 26 0;
#X connect 2 1 15 0;
#X connect 2 2 5 0;
#X connect 2 3 0 0;
#X connect 3 0 2 0;
#X connect 5 0 1 0;
#X connect 5 0 12 1;
#X connect 6 0 2 0;
#X connect 6 0 21 0;
#X connect 7 0 11 0;
#X connect 7 0 17 0;
#X connect 8 0 7 0;
#X connect 9 0 10 0;
#X connect 9 0 6 0;
#X connect 10 0 7 0;
#X connect 11 0 12 0;
#X connect 12 0 13 0;
#X connect 12 0 14 0;
#X connect 14 0 9 0;
#X connect 15 0 8 0;
#X connect 16 0 2 0;
#X connect 18 0 2 0;
#X connect 19 0 7 2;
#X connect 19 0 22 0;
#X connect 22 0 20 0;
#X connect 23 0 22 1;
#X connect 26 0 6 1;
#X restore 306 193 pd clustermetro;
#X obj 285 195 bng 15 250 50 0 empty empty empty 17 7 0 10 -262144
-1 -1;
#N canvas 326 601 450 300 sel01 0;
#X obj 122 3 inlet;
#X obj 247 31 sel 0;
#X msg 225 58 0;
#X msg 275 57 1;
#X obj 49 133 spigot;
#X obj 240 5 inlet;
#X obj 47 203 outlet;
#X obj 165 105 tgl 15 0 empty empty empty 17 7 0 10 -262144 -1 -1 0
1;
#X connect 0 0 4 0;
#X connect 1 0 2 0;
#X connect 1 1 3 0;
#X connect 2 0 7 0;
#X connect 3 0 7 0;
#X connect 4 0 6 0;
#X connect 5 0 1 0;
#X connect 7 0 4 1;
#X coords 0 -1 1 1 85 25 1 100 100;
#X restore 304 216 pd sel01;
#X obj 158 15 declare -path percsamples;
#N canvas 696 55 1049 677 loadsounds 1;
#X obj 94 14 loadbang;
#X obj 91 58 soundfiler;
#X obj 91 114 loadbang;
#X obj 92 159 soundfiler;
#X msg 93 36 read -resize ainsliebirds1.wav ab1;
#X obj 94 84 table ab1;
#X msg 93 136 read -resize ainsliebirds2.wav ab2;
#X obj 91 184 table ab2;
#X obj 97 215 loadbang;
#X obj 98 260 soundfiler;
#X obj 97 285 table ab3;
#X msg 99 237 read -resize ainsliebirds3.wav ab3;
#X obj 373 9 loadbang;
#X obj 370 53 soundfiler;
#X obj 370 109 loadbang;
#X obj 371 154 soundfiler;
#X obj 376 210 loadbang;
#X obj 377 255 soundfiler;
#X msg 372 31 read -resize cabinbirds1.wav cb1;
#X obj 373 79 table cb1;
#X msg 372 131 read -resize cabinbirds2.wav cb2;
#X obj 369 179 table cb2;
#X msg 378 232 read -resize cabinbirds3.wav cb3;
#X obj 376 280 table cb3;
#X obj 91 325 loadbang;
#X obj 88 369 soundfiler;
#X obj 88 425 loadbang;
#X obj 89 470 soundfiler;
#X obj 94 526 loadbang;
#X obj 95 571 soundfiler;
#X msg 90 347 read -resize forestfloor1.wav ff1;
#X obj 91 395 table ff1;
#X msg 90 447 read -resize forestfloor2.wav ff2;
#X obj 87 495 table ff2;
#X msg 96 548 read -resize forestfloor3.wav ff3;
#X obj 94 596 table ff3;
#X obj 390 315 loadbang;
#X obj 387 359 soundfiler;
#X obj 387 415 loadbang;
#X obj 388 460 soundfiler;
#X obj 393 516 loadbang;
#X obj 394 561 soundfiler;
#X msg 389 337 read -resize drips1.wav d1;
#X obj 392 385 table d1;
#X msg 389 437 read -resize drips2.wav d2;
#X obj 386 485 table d2;
#X msg 395 538 read -resize stream.wav stream;
#X obj 393 586 table stream;
#X obj 592 508 loadbang;
#X obj 593 553 soundfiler;
#X msg 594 530 read -resize piteabirds.wav pitea;
#X obj 592 578 table pitea;
#X obj 598 286 loadbang;
#X obj 599 331 soundfiler;
#X obj 598 356 table crotale;
#X msg 600 308 read -resize xylo-C.wav crotale;
#X obj 617 15 loadbang;
#X obj 618 60 soundfiler;
#X obj 617 85 table doodoo;
#X msg 619 37 read -resize doodoodoodoo.wav doodoo;
#X obj 617 109 loadbang;
#X obj 618 154 soundfiler;
#X obj 617 179 table whirpwhirp;
#X msg 619 131 read -resize whirpwhirp.wav whirpwhirp;
#X obj 669 208 loadbang;
#X obj 670 253 soundfiler;
#X msg 672 230 read -resize yelpyelpyelp.wav yelpyelp;
#X obj 669 278 table yelpyelp;
#X connect 0 0 4 0;
#X connect 2 0 6 0;
#X connect 4 0 1 0;
#X connect 6 0 3 0;
#X connect 8 0 11 0;
#X connect 11 0 9 0;
#X connect 12 0 18 0;
#X connect 14 0 20 0;
#X connect 16 0 22 0;
#X connect 18 0 13 0;
#X connect 20 0 15 0;
#X connect 22 0 17 0;
#X connect 24 0 30 0;
#X connect 26 0 32 0;
#X connect 28 0 34 0;
#X connect 30 0 25 0;
#X connect 32 0 27 0;
#X connect 34 0 29 0;
#X connect 36 0 42 0;
#X connect 38 0 44 0;
#X connect 40 0 46 0;
#X connect 42 0 37 0;
#X connect 44 0 39 0;
#X connect 46 0 41 0;
#X connect 48 0 50 0;
#X connect 50 0 49 0;
#X connect 52 0 55 0;
#X connect 55 0 53 0;
#X connect 56 0 59 0;
#X connect 59 0 57 0;
#X connect 60 0 63 0;
#X connect 63 0 61 0;
#X connect 64 0 66 0;
#X connect 66 0 65 0;
#X restore 325 15 pd loadsounds;
#N canvas 0 169 915 715 clusters2 1;
#N canvas 1002 481 501 471 makebelnote 0;
#X obj 21 15 inlet;
#X obj 85 442 outlet;
#X obj 85 414 pack f f;
#X floatatom 55 229 5 0 0 0 - - -;
#X obj 54 162 bng 15 250 50 0 empty empty empty 17 7 0 10 -262144 -1
-1;
#X obj 54 184 random 7;
#X text 78 246 note;
#X obj 59 267 m_mixolydian 48;
#X obj 196 240 / 100;
#X obj 196 197 random 15;
#X obj 196 219 + 85;
#X obj 196 262 * 127;
#X obj 143 122 t b b;
#X obj 55 208 tabread \$0-cluster2;
#X connect 0 0 12 0;
#X connect 2 0 1 0;
#X connect 3 0 7 0;
#X connect 4 0 5 0;
#X connect 5 0 13 0;
#X connect 7 0 2 0;
#X connect 8 0 11 0;
#X connect 9 0 10 0;
#X connect 10 0 8 0;
#X connect 11 0 2 1;
#X connect 12 0 5 0;
#X connect 12 1 9 0;
#X connect 13 0 3 0;
#X restore 68 401 pd makebelnote;
#X obj 107 355 bng 15 250 50 0 empty empty empty 17 7 0 10 -262144
-1 -1;
#X obj 222 631 outlet~;
#X obj 274 630 outlet~;
#X obj 222 574 g_vol2;
#X obj 45 250 inlet;
#X text 23 231 note input;
#N canvas 678 157 501 471 makebelnote 0;
#X obj 21 15 inlet;
#X obj 85 442 outlet;
#X obj 85 414 pack f f;
#X floatatom 55 229 5 0 0 0 - - -;
#X obj 54 162 bng 15 250 50 0 empty empty empty 17 7 0 10 -262144 -1
-1;
#X obj 54 184 random 7;
#X text 78 246 note;
#X obj 59 267 m_mixolydian 48;
#X obj 196 240 / 100;
#X obj 196 197 random 15;
#X obj 196 219 + 85;
#X obj 196 262 * 127;
#X obj 143 122 t b b;
#X obj 55 208 tabread \$0-cluster2;
#X connect 0 0 12 0;
#X connect 2 0 1 0;
#X connect 3 0 7 0;
#X connect 4 0 5 0;
#X connect 5 0 13 0;
#X connect 7 0 2 0;
#X connect 8 0 11 0;
#X connect 9 0 10 0;
#X connect 10 0 8 0;
#X connect 11 0 2 1;
#X connect 12 0 5 0;
#X connect 12 1 9 0;
#X connect 13 0 3 0;
#X restore 212 397 pd makebelnote;
#X obj 251 351 bng 15 250 50 0 empty empty empty 17 7 0 10 -262144
-1 -1;
#N canvas 1002 481 501 471 makebelnote 0;
#X obj 21 15 inlet;
#X obj 85 442 outlet;
#X obj 85 414 pack f f;
#X floatatom 55 229 5 0 0 0 - - -;
#X obj 54 162 bng 15 250 50 0 empty empty empty 17 7 0 10 -262144 -1
-1;
#X obj 54 184 random 7;
#X text 78 246 note;
#X obj 59 267 m_mixolydian 48;
#X obj 196 240 / 100;
#X obj 196 197 random 15;
#X obj 196 219 + 85;
#X obj 196 262 * 127;
#X obj 143 122 t b b;
#X obj 55 208 tabread \$0-cluster2;
#X connect 0 0 12 0;
#X connect 2 0 1 0;
#X connect 3 0 7 0;
#X connect 4 0 5 0;
#X connect 5 0 13 0;
#X connect 7 0 2 0;
#X connect 8 0 11 0;
#X connect 9 0 10 0;
#X connect 10 0 8 0;
#X connect 11 0 2 1;
#X connect 12 0 5 0;
#X connect 12 1 9 0;
#X connect 13 0 3 0;
#X restore 328 405 pd makebelnote;
#X obj 367 359 bng 15 250 50 0 empty empty empty 17 7 0 10 -262144
-1 -1;
#N canvas 1002 481 501 471 makebelnote 0;
#X obj 21 15 inlet;
#X obj 85 442 outlet;
#X obj 85 414 pack f f;
#X floatatom 55 229 5 0 0 0 - - -;
#X obj 54 162 bng 15 250 50 0 empty empty empty 17 7 0 10 -262144 -1
-1;
#X obj 54 184 random 7;
#X text 78 246 note;
#X obj 59 267 m_mixolydian 48;
#X obj 196 240 / 100;
#X obj 196 197 random 15;
#X obj 196 219 + 85;
#X obj 196 262 * 127;
#X obj 143 122 t b b;
#X obj 55 208 tabread \$0-cluster2;
#X connect 0 0 12 0;
#X connect 2 0 1 0;
#X connect 3 0 7 0;
#X connect 4 0 5 0;
#X connect 5 0 13 0;
#X connect 7 0 2 0;
#X connect 8 0 11 0;
#X connect 9 0 10 0;
#X connect 10 0 8 0;
#X connect 11 0 2 1;
#X connect 12 0 5 0;
#X connect 12 1 9 0;
#X connect 13 0 3 0;
#X restore 425 407 pd makebelnote;
#X obj 464 361 bng 15 250 50 0 empty empty empty 17 7 0 10 -262144
-1 -1;
#X obj 601 3 loadbang;
#X msg 636 106 0 -7 -6 -2 -1 3 -9;
#X obj 608 74 table \$0-cluster2 7;
#X obj 605 53 s \$0-cluster2;
#N canvas 852 386 450 300 counter 0;
#X obj 28 19 inlet;
#X obj 98 73 + 1;
#X floatatom 45 97 5 0 0 0 - - -;
#X msg 95 119 set \$1;
#X obj 95 96 % 4;
#X obj 33 168 sel 0 1 2 3;
#X obj 22 245 outlet;
#X obj 58 242 outlet;
#X obj 102 239 outlet;
#X obj 147 238 outlet;
#X connect 0 0 2 0;
#X connect 1 0 4 0;
#X connect 2 0 1 0;
#X connect 2 0 5 0;
#X connect 3 0 2 0;
#X connect 4 0 3 0;
#X connect 5 0 6 0;
#X connect 5 1 7 0;
#X connect 5 2 8 0;
#X connect 5 3 9 0;
#X restore 43 275 pd counter;
#X obj 344 566 loadbang;
#X obj 414 563 inlet;
#X msg 344 588 95;
#N canvas 859 247 478 572 choosenotes 0;
#X obj 54 22 inlet;
#X obj 70 535 outlet;
#X obj 58 81 random 19;
#X obj 58 103 - 9;
#X obj 58 130 list append;
#X obj 58 163 list append;
#X obj 68 173 list append;
#X obj 78 183 list append;
#X obj 88 193 list append;
#X obj 98 203 list append;
#X obj 63 52 t b b b b b b b;
#X obj 121 81 random 19;
#X obj 121 103 - 9;
#X obj 185 80 random 19;
#X obj 185 102 - 9;
#X obj 185 131 random 19;
#X obj 185 153 - 9;
#X obj 251 131 random 19;
#X obj 251 153 - 9;
#X obj 317 131 random 19;
#X obj 317 153 - 9;
#X obj 382 130 random 19;
#X obj 382 152 - 9;
#X connect 0 0 10 0;
#X connect 2 0 3 0;
#X connect 3 0 4 0;
#X connect 4 0 5 0;
#X connect 5 0 6 0;
#X connect 6 0 7 0;
#X connect 7 0 8 0;
#X connect 8 0 9 0;
#X connect 9 0 1 0;
#X connect 10 0 2 0;
#X connect 10 1 11 0;
#X connect 10 2 13 0;
#X connect 10 3 15 0;
#X connect 10 4 17 0;
#X connect 10 5 19 0;
#X connect 10 6 21 0;
#X connect 11 0 12 0;
#X connect 12 0 4 1;
#X connect 13 0 14 0;
#X connect 14 0 5 1;
#X connect 15 0 16 0;
#X connect 16 0 6 1;
#X connect 17 0 18 0;
#X connect 18 0 7 1;
#X connect 19 0 20 0;
#X connect 20 0 8 1;
#X connect 21 0 22 0;
#X connect 22 0 9 1;
#X restore 603 30 pd choosenotes;
#X obj 195 212 notein;
#N canvas 1121 64 488 330 note_distribute 0;
#X obj 89 26 inlet;
#X obj 153 27 inlet;
#X obj 45 258 outlet;
#X obj 103 50 pack f f;
#X obj 103 85 stripnote;
#X obj 127 257 outlet;
#X obj 244 260 outlet;
#X obj 313 257 outlet;
#X obj 248 106 + 1;
#X floatatom 195 130 5 0 0 0 - - -;
#X msg 245 152 set \$1;
#X obj 245 129 % 4;
#X obj 195 102 t b;
#X obj 84 210 route 0 1 2 3;
#X obj 98 145 pack f f;
#X obj 123 180 list prepend;
#N canvas 326 601 450 300 sel01 0;
#X obj 122 3 inlet;
#X obj 247 31 sel 0;
#X msg 225 58 0;
#X msg 275 57 1;
#X obj 49 133 spigot;
#X obj 240 5 inlet;
#X obj 47 203 outlet;
#X obj 165 105 tgl 15 0 empty empty empty 17 7 0 10 -262144 -1 -1 1
1;
#X connect 0 0 4 0;
#X connect 1 0 2 0;
#X connect 1 1 3 0;
#X connect 2 0 7 0;
#X connect 3 0 7 0;
#X connect 4 0 6 0;
#X connect 5 0 1 0;
#X connect 7 0 4 1;
#X coords 0 -1 1 1 85 25 1 100 100;
#X restore 231 48 pd sel01;
#X obj 331 23 inlet;
#X obj 340 91 loadbang;
#X msg 335 121 1;
#X connect 0 0 3 0;
#X connect 1 0 3 1;
#X connect 3 0 16 0;
#X connect 4 0 14 0;
#X connect 4 1 12 0;
#X connect 4 1 14 1;
#X connect 8 0 11 0;
#X connect 9 0 8 0;
#X connect 9 0 15 1;
#X connect 10 0 9 0;
#X connect 11 0 10 0;
#X connect 12 0 9 0;
#X connect 13 0 2 0;
#X connect 13 1 5 0;
#X connect 13 2 6 0;
#X connect 13 3 7 0;
#X connect 14 0 15 0;
#X connect 15 0 13 0;
#X connect 16 0 4 0;
#X connect 17 0 16 1;
#X connect 18 0 19 0;
#X connect 19 0 16 1;
#X restore 183 246 pd note_distribute;
#X obj 289 133 r clusterSwitch;
#X obj 289 159 * -1;
#X obj 290 184 + 1;
#X obj 290 215 abs;
#X obj 482 28 r clusterSwitch;
#X obj 482 49 t b;
#X floatatom 316 247 5 0 0 0 - - -;
#X obj 71 438 bowlsynth;
#X obj 215 434 bowlsynth;
#X obj 331 442 bowlsynth;
#X obj 428 444 bowlsynth;
#X obj 513 96 r randomiseSounds;
#X obj 683 276 r randomiseSounds;
#X obj 713 567 s chooseClusterSound;
#X obj 68 485 r chooseClusterSound;
#X obj 213 469 r chooseClusterSound;
#X obj 345 465 r chooseClusterSound;
#X obj 432 495 r chooseClusterSound;
#X obj 644 233 loadbang;
#X msg 794 442 crotale 261.63;
#X msg 714 471 doodoo 265;
#X msg 609 446 yelpyelp 265;
#X msg 695 444 whirpwhirp 200;
#X obj 678 334 select 0 1 2 3;
#X obj 679 303 random 5;
#X connect 0 0 31 0;
#X connect 1 0 0 0;
#X connect 4 0 2 0;
#X connect 4 1 3 0;
#X connect 5 0 17 0;
#X connect 7 0 32 0;
#X connect 8 0 7 0;
#X connect 9 0 33 0;
#X connect 10 0 9 0;
#X connect 11 0 34 0;
#X connect 12 0 11 0;
#X connect 13 0 21 0;
#X connect 17 0 1 0;
#X connect 17 1 8 0;
#X connect 17 2 10 0;
#X connect 17 3 12 0;
#X connect 18 0 20 0;
#X connect 19 0 4 2;
#X connect 20 0 4 2;
#X connect 21 0 16 0;
#X connect 22 0 23 0;
#X connect 22 1 23 1;
#X connect 23 0 31 0;
#X connect 23 1 32 0;
#X connect 23 2 33 0;
#X connect 23 3 34 0;
#X connect 24 0 25 0;
#X connect 25 0 26 0;
#X connect 26 0 27 0;
#X connect 27 0 23 2;
#X connect 27 0 30 0;
#X connect 28 0 29 0;
#X connect 29 0 21 0;
#X connect 31 0 4 0;
#X connect 31 1 4 1;
#X connect 32 0 4 0;
#X connect 32 1 4 1;
#X connect 33 0 4 0;
#X connect 33 1 4 1;
#X connect 34 0 4 0;
#X connect 34 1 4 1;
#X connect 35 0 21 0;
#X connect 36 0 48 0;
#X connect 38 0 31 1;
#X connect 39 0 32 1;
#X connect 40 0 33 1;
#X connect 41 0 34 1;
#X connect 42 0 48 0;
#X connect 43 0 37 0;
#X connect 44 0 37 0;
#X connect 45 0 37 0;
#X connect 46 0 37 0;
#X connect 47 0 45 0;
#X connect 47 1 43 0;
#X connect 47 2 44 0;
#X connect 47 3 46 0;
#X connect 47 4 43 0;
#X connect 48 0 47 0;
#X restore 149 246 pd clusters2;
#N canvas 93 395 450 300 reverb 0;
#X obj 48 24 inlet~;
#X obj 47 206 outlet~;
#X obj 132 33 loadbang;
#X obj 46 117 e_reverb \$0-reverbBus;
#X obj 106 207 outlet~;
#X msg 132 54 amp 80 \, hall 85 \, freq 6000 \, damp 60 \, dry 0;
#X connect 0 0 3 0;
#X connect 2 0 5 0;
#X connect 3 0 1 0;
#X connect 3 1 4 0;
#X connect 5 0 3 1;
#X restore 99 325 pd reverb;
#N canvas 272 79 763 884 snowslide 0;
#X obj 107 34 inlet;
#X obj 129 813 outlet~;
#X obj 179 812 outlet~;
#X obj 116 203 bng 15 250 50 0 empty empty empty 17 7 0 10 -262144
-1 -1;
#X obj 116 268 list prepend playdiv;
#X obj 107 54 t b;
#X text 107 13 note;
#X text 290 717 volume;
#X obj 293 734 inlet;
#X obj 145 756 g_vol2;
#X obj 294 763 / 100;
#X obj 123 628 *~;
#N canvas 227 330 516 558 env_perc_long 0;
#X obj 198 434 outlet~;
#X obj 13 16 inlet;
#X obj 196 327 / 127;
#X obj 196 366 t a a;
#X obj 157 260 * 127;
#X obj 117 259 t b a;
#X msg 116 280 60;
#X obj 349 21 inlet;
#X text 340 43 volume (0-1);
#X text 59 15 trigger - start envelope;
#X msg 118 153 1;
#X obj 118 131 t b;
#X obj 133 175 *;
#X obj 159 157 loadbang;
#X msg 159 176 1;
#X text 226 160 handle the volume scaling.;
#X text 249 287 setup a midi note (on then off);
#X text 325 355 calculate and send the env;
#X text 41 515 percussive envelope generator - cpm 2012;
#X obj 120 299 makenote 60 2000;
#X obj 435 20 inlet;
#X text 434 44 duration;
#X obj 198 411 c_adsr 1 300 2000 0 2000;
#X text 76 39 handle negative input to close env;
#X connect 1 0 11 0;
#X connect 2 0 3 0;
#X connect 3 0 22 0;
#X connect 3 1 22 1;
#X connect 4 0 19 1;
#X connect 5 0 6 0;
#X connect 5 1 4 0;
#X connect 6 0 19 0;
#X connect 7 0 12 1;
#X connect 10 0 12 0;
#X connect 11 0 10 0;
#X connect 12 0 5 0;
#X connect 13 0 14 0;
#X connect 14 0 12 1;
#X connect 19 1 2 0;
#X connect 20 0 19 2;
#X connect 20 0 22 3;
#X connect 22 0 0 0;
#X restore 283 576 pd env_perc_long;
#X obj 455 394 unpack s f;
#X floatatom 492 425 10 0 0 0 - - -;
#X msg 257 291 info;
#X floatatom 441 448 5 0 0 0 - - -;
#X msg 252 207 fade 10;
#X obj 491 472 loadbang;
#X obj 233 720 loadbang;
#X obj 116 289 list append 1;
#X floatatom 442 507 5 0 0 0 - - -;
#X obj 116 222 random 15;
#X obj 116 247 list prepend 15;
#X obj 439 422 / 15;
#X obj 439 481 - 300;
#X obj 256 270 loadbang;
#X obj 239 813 * 1;
#X obj 254 167 loadbang;
#X msg 299 299 sr 44100;
#X msg 489 495 1700;
#X obj 184 629 *~;
#X msg 373 267 info;
#X obj 408 202 delay 2000;
#X obj 555 23 inlet;
#X obj 554 92 select 0 1 2 3;
#X obj 556 70 random 4;
#X obj 556 48 t b;
#X obj 558 330 t a;
#X msg 233 742 85;
#X msg 555 124 open cb1;
#X msg 573 149 open ab1;
#X msg 591 173 open ff1;
#X msg 605 198 open stream;
#X obj 117 360 s_cpmlooper_open pitea;
#X msg 341 237 open stream;
#X connect 0 0 5 0;
#X connect 3 0 22 0;
#X connect 4 0 20 0;
#X connect 5 0 3 0;
#X connect 8 0 10 0;
#X connect 9 0 1 0;
#X connect 9 1 2 0;
#X connect 10 0 27 0;
#X connect 11 0 9 0;
#X connect 12 0 11 1;
#X connect 12 0 31 1;
#X connect 13 1 14 0;
#X connect 13 1 24 0;
#X connect 15 0 44 0;
#X connect 16 0 25 0;
#X connect 17 0 44 0;
#X connect 18 0 30 0;
#X connect 19 0 39 0;
#X connect 20 0 44 0;
#X connect 22 0 23 0;
#X connect 23 0 4 0;
#X connect 24 0 16 0;
#X connect 25 0 12 2;
#X connect 25 0 21 0;
#X connect 26 0 15 0;
#X connect 26 0 29 0;
#X connect 27 0 9 2;
#X connect 28 0 17 0;
#X connect 28 0 33 0;
#X connect 29 0 44 0;
#X connect 30 0 12 2;
#X connect 31 0 9 1;
#X connect 32 0 44 0;
#X connect 33 0 45 0;
#X connect 34 0 37 0;
#X connect 35 0 40 0;
#X connect 35 1 41 0;
#X connect 35 2 42 0;
#X connect 35 3 43 0;
#X connect 36 0 35 0;
#X connect 37 0 36 0;
#X connect 38 0 44 0;
#X connect 39 0 27 0;
#X connect 40 0 38 0;
#X connect 41 0 38 0;
#X connect 42 0 38 0;
#X connect 43 0 38 0;
#X connect 44 0 11 0;
#X connect 44 1 31 0;
#X connect 44 2 12 0;
#X connect 44 3 13 0;
#X connect 45 0 44 0;
#X restore 448 245 pd snowslide;
#N canvas 727 49 477 425 clustermetro 0;
#X obj 303 241 bng 15 250 50 0 empty empty empty 17 7 0 10 -262144
-1 -1;
#X obj 247 264 + 1;
#X obj 211 109 t b b b b;
#X obj 201 15 bng 15 250 50 0 empty empty empty 17 7 0 10 -262144 -1
-1;
#X floatatom 256 287 5 0 0 0 - - -;
#X obj 247 244 random 6;
#X obj 67 123 delay 1000;
#X obj 192 324 c_multimetro 16 200;
#X obj 192 298 tgl 15 0 empty empty empty 17 7 0 10 -262144 -1 -1 1
1;
#X obj 91 319 delay 10;
#X msg 149 325 stop;
#X floatatom 89 252 5 0 0 0 - - -;
#X obj 89 276 sel 15;
#X obj 83 299 bng 15 250 50 0 empty empty empty 17 7 0 10 -262144 -1
-1;
#X obj 102 297 t b;
#X msg 192 277 1;
#X obj 223 13 loadbang;
#X obj 192 346 outlet;
#X obj 157 14 inlet;
#N canvas 1012 38 445 814 createclusterrhythm 0;
#X obj 78 50 inlet;
#X obj 52 778 outlet;
#X obj 68 140 t b b b b b b b b;
#X obj 93 478 list append;
#X obj 92 500 list append;
#X obj 95 522 list append;
#X obj 96 544 list append;
#X obj 94 567 list append;
#X obj 95 592 list append;
#X obj 167 187 + 200;
#X obj 148 231 + 200;
#X obj 143 277 + 200;
#X obj 122 316 + 200;
#X obj 113 358 + 200;
#X obj 104 402 + 200;
#X obj 94 444 + 200;
#X obj 167 167 random 4000;
#X obj 148 211 random 4000;
#X obj 143 257 random 4000;
#X obj 122 296 random 4000;
#X obj 113 338 random 4000;
#X obj 104 382 random 4000;
#X obj 94 424 random 4000;
#X connect 0 0 2 0;
#X connect 2 1 22 0;
#X connect 2 2 21 0;
#X connect 2 3 20 0;
#X connect 2 4 19 0;
#X connect 2 5 18 0;
#X connect 2 6 17 0;
#X connect 2 7 16 0;
#X connect 3 0 4 0;
#X connect 4 0 5 0;
#X connect 5 0 6 0;
#X connect 6 0 7 0;
#X connect 7 0 8 0;
#X connect 8 0 1 0;
#X connect 9 0 8 1;
#X connect 10 0 7 1;
#X connect 11 0 6 1;
#X connect 12 0 5 1;
#X connect 13 0 4 1;
#X connect 14 0 3 1;
#X connect 15 0 3 0;
#X connect 16 0 9 0;
#X connect 17 0 10 0;
#X connect 18 0 11 0;
#X connect 19 0 12 0;
#X connect 20 0 13 0;
#X connect 21 0 14 0;
#X connect 22 0 15 0;
#X restore 303 262 pd createclusterrhythm;
#X obj 348 352 print rhythm:;
#X obj 46 124 bng 15 250 50 0 empty empty empty 17 7 0 10 -262144 -1
-1;
#X obj 345 321 spigot;
#X obj 374 293 tgl 15 0 empty empty empty 17 7 0 10 -262144 -1 -1 0
1;
#X text 40 73 timer for calculating new cycle;
#X text 329 235 creates the rhythm;
#X obj 66 97 random 20000;
#X connect 0 0 19 0;
#X connect 1 0 7 1;
#X connect 1 0 4 0;
#X connect 2 0 26 0;
#X connect 2 1 15 0;
#X connect 2 2 5 0;
#X connect 2 3 0 0;
#X connect 3 0 2 0;
#X connect 5 0 1 0;
#X connect 5 0 12 1;
#X connect 6 0 2 0;
#X connect 6 0 21 0;
#X connect 7 0 11 0;
#X connect 7 0 17 0;
#X connect 8 0 7 0;
#X connect 9 0 10 0;
#X connect 9 0 6 0;
#X connect 10 0 7 0;
#X connect 11 0 12 0;
#X connect 12 0 13 0;
#X connect 12 0 14 0;
#X connect 14 0 9 0;
#X connect 15 0 8 0;
#X connect 16 0 2 0;
#X connect 18 0 2 0;
#X connect 19 0 7 2;
#X connect 19 0 22 0;
#X connect 22 0 20 0;
#X connect 23 0 22 1;
#X connect 26 0 6 1;
#X restore 451 192 pd clustermetro;
#X obj 430 194 bng 15 250 50 0 empty empty empty 17 7 0 10 -262144
-1 -1;
#N canvas 326 601 450 300 sel01 0;
#X obj 122 3 inlet;
#X obj 247 31 sel 0;
#X msg 225 58 0;
#X msg 275 57 1;
#X obj 49 133 spigot;
#X obj 240 5 inlet;
#X obj 47 203 outlet;
#X obj 165 105 tgl 15 0 empty empty empty 17 7 0 10 -262144 -1 -1 0
1;
#X connect 0 0 4 0;
#X connect 1 0 2 0;
#X connect 1 1 3 0;
#X connect 2 0 7 0;
#X connect 3 0 7 0;
#X connect 4 0 6 0;
#X connect 5 0 1 0;
#X connect 7 0 4 1;
#X coords 0 -1 1 1 85 25 1 100 100;
#X restore 449 215 pd sel01;
#N canvas 27 222 450 300 output 0;
#X obj 60 16 inlet~;
#X obj 60 52 hip~ 1;
#X obj 60 78 clip~ -1 1;
#X obj 131 16 inlet~;
#X obj 131 52 hip~ 1;
#X obj 131 78 clip~ -1 1;
#X obj 100 111 dac~;
#X connect 0 0 1 0;
#X connect 1 0 2 0;
#X connect 2 0 6 0;
#X connect 3 0 4 0;
#X connect 4 0 5 0;
#X connect 5 0 6 1;
#X restore 446 460 pd output;
#X obj 157 79 declare -path cpmlibs;
#X obj 155 46 declare -path fieldrecordings;
#X obj 703 235 * 0.8;
#X obj 703 255 + 0.2;
#X obj 563 23 tgl 15 0 empty empty empty 17 7 0 10 -262144 -1 -1 0
1;
#N canvas 76 139 865 753 field_responder 0;
#X obj 62 60 inlet;
#X obj 359 50 inlet;
#X obj 569 52 inlet;
#X text 358 32 touchMoved;
#X text 568 35 touchEnded;
#X text 59 41 touchBegan;
#X obj 321 502 outlet~;
#X obj 397 502 outlet~;
#N canvas 0 22 450 300 vol_scaler 0;
#X obj 40 20 inlet~;
#X obj 167 25 inlet~;
#X obj 34 255 outlet~;
#X obj 177 252 outlet~;
#X obj 45 118 *~;
#X obj 168 116 *~;
#X obj 255 27 inlet;
#X obj 266 244 outlet;
#X obj 283 79 loadbang;
#X msg 282 122 1;
#X connect 0 0 4 0;
#X connect 1 0 5 0;
#X connect 4 0 2 0;
#X connect 5 0 3 0;
#X connect 6 0 5 1;
#X connect 6 0 4 1;
#X connect 6 0 7 0;
#X connect 8 0 9 0;
#X connect 9 0 5 1;
#X connect 9 0 4 1;
#X restore 412 432 pd vol_scaler;
#X msg 486 407 0;
#X obj 576 76 bng 15 250 50 0 empty empty empty 17 7 0 10 -262144 -1
-1;
#X obj 365 142 line;
#X obj 365 122 list append 100;
#X msg 383 204 loop 1;
#X msg 475 64 100;
#X msg 382 246 loop 1;
#N canvas 1333 300 450 300 chooseOutAtLoad 0;
#X obj 28 19 inlet;
#X floatatom 45 97 5 0 0 0 - - -;
#X msg 95 119 set \$1;
#X obj 22 245 outlet;
#X obj 58 242 outlet;
#X obj 115 38 loadbang;
#X obj 185 52 bng 15 250 50 0 empty empty empty 17 7 0 10 -262144 -1
-1;
#X obj 118 73 random 3;
#X obj 33 168 sel 0 1 2;
#X obj 102 245 outlet;
#X obj 183 32 r randomiseSounds;
#X connect 0 0 1 0;
#X connect 1 0 8 0;
#X connect 2 0 1 0;
#X connect 5 0 7 0;
#X connect 6 0 7 0;
#X connect 7 0 2 0;
#X connect 8 0 3 0;
#X connect 8 1 4 0;
#X connect 8 2 9 0;
#X connect 10 0 7 0;
#X restore 230 79 pd chooseOutAtLoad;
#X msg 377 290 loop 1;
#X msg 665 132 sr 44100;
#X obj 665 111 loadbang;
#X obj 229 33 inlet;
#X obj 230 56 t b a;
#N canvas 975 514 488 330 tap_distribute 0;
#X obj 89 26 inlet;
#X obj 45 258 outlet;
#X obj 127 257 outlet;
#X obj 244 260 outlet;
#X obj 313 257 outlet;
#X obj 248 106 + 1;
#X floatatom 195 130 5 0 0 0 - - -;
#X msg 245 152 set \$1;
#X obj 245 129 % 4;
#X obj 195 102 t b;
#X obj 84 210 route 0 1 2 3;
#X obj 123 180 list prepend;
#X connect 0 0 9 0;
#X connect 0 0 11 0;
#X connect 5 0 8 0;
#X connect 6 0 5 0;
#X connect 6 0 11 1;
#X connect 7 0 6 0;
#X connect 8 0 7 0;
#X connect 9 0 6 0;
#X connect 10 0 1 0;
#X connect 10 1 2 0;
#X connect 10 2 3 0;
#X connect 10 3 4 0;
#X connect 11 0 10 0;
#X restore 76 168 pd tap_distribute;
#N canvas 354 65 491 523 tapfieldplayer 0;
#X obj 28 19 inlet;
#X obj 23 477 outlet~;
#X obj 131 478 outlet~;
#X obj 62 290 list prepend playdiv;
#X obj 200 112 bng 15 250 50 0 empty empty empty 17 7 0 10 -262144
-1 -1;
#N canvas 1144 170 516 558 env_perc 0;
#X obj 198 412 outlet~;
#X obj 13 16 inlet;
#X obj 196 327 / 127;
#X obj 196 366 t a a;
#X obj 157 260 * 127;
#X msg 116 280 60;
#X obj 116 301 makenote 60 200;
#X obj 349 21 inlet;
#X text 340 43 volume (0-1);
#X text 59 15 trigger - start envelope;
#X msg 16 102 1;
#X obj 31 124 *;
#X obj 57 106 loadbang;
#X msg 57 125 1;
#X text 6 53 handle the volume scaling.;
#X text 249 287 setup a midi note (on then off);
#X text 325 355 calculate and send the env;
#X text 41 515 percussive envelope generator - cpm 2012;
#X obj 448 23 inlet;
#X text 214 222 calculate a changing length;
#X obj 16 80 t b b;
#X obj 117 209 t b a b;
#X obj 198 272 + 50;
#X floatatom 305 265 5 0 0 0 - - -;
#X obj 199 248 random 250;
#X obj 198 389 c_adsr 1 20 200 100 450;
#X connect 1 0 20 0;
#X connect 2 0 3 0;
#X connect 3 0 25 0;
#X connect 3 1 25 1;
#X connect 4 0 6 1;
#X connect 5 0 6 0;
#X connect 6 1 2 0;
#X connect 7 0 11 1;
#X connect 10 0 11 0;
#X connect 11 0 21 0;
#X connect 12 0 13 0;
#X connect 13 0 11 1;
#X connect 18 0 22 1;
#X connect 20 0 10 0;
#X connect 21 0 5 0;
#X connect 21 1 4 0;
#X connect 21 2 24 0;
#X connect 22 0 6 2;
#X connect 22 0 23 0;
#X connect 24 0 22 0;
#X connect 25 0 0 0;
#X restore 293 410 pd env_perc;
#N canvas 0 22 450 300 vol_scaler_ar 0;
#X obj 40 20 inlet~;
#X obj 167 25 inlet~;
#X obj 34 255 outlet~;
#X obj 177 252 outlet~;
#X obj 45 118 *~;
#X obj 168 116 *~;
#X obj 283 79 loadbang;
#X msg 282 122 1;
#X obj 255 27 inlet~;
#X obj 266 244 outlet~;
#X connect 0 0 4 0;
#X connect 1 0 5 0;
#X connect 4 0 2 0;
#X connect 5 0 3 0;
#X connect 6 0 7 0;
#X connect 7 0 5 1;
#X connect 7 0 4 1;
#X connect 8 0 5 1;
#X connect 8 0 4 1;
#X connect 8 0 9 0;
#X restore 147 369 pd vol_scaler_ar;
#X msg 365 332 sr 44100;
#X obj 365 309 loadbang;
#X obj 62 268 list prepend 150;
#X obj 109 201 random 5;
#X obj 62 247 list prepend;
#X obj 183 212 random 150;
#X obj 92 227 + 1;
#X obj 381 22 inlet;
#X obj 360 247 list prepend open;
#X obj 360 278 list trim;
#X obj 232 266 list trim;
#X obj 249 301 print;
#X obj 245 77 t b a b;
#X msg 290 108 info;
#X msg 37 126 sr 44100;
#X obj 37 103 loadbang;
#X obj 71 335 s_cpmlooper_open cb1;
#X connect 0 0 19 0;
#X connect 3 0 17 0;
#X connect 4 0 10 0;
#X connect 4 0 12 0;
#X connect 5 0 6 2;
#X connect 6 0 1 0;
#X connect 6 1 2 0;
#X connect 7 0 23 0;
#X connect 8 0 7 0;
#X connect 9 0 3 0;
#X connect 10 0 13 0;
#X connect 11 0 9 0;
#X connect 12 0 11 1;
#X connect 13 0 11 0;
#X connect 14 0 15 0;
#X connect 15 0 16 0;
#X connect 16 0 23 0;
#X connect 17 0 18 0;
#X connect 17 0 23 0;
#X connect 19 0 4 0;
#X connect 19 1 5 1;
#X connect 19 2 20 0;
#X connect 20 0 23 0;
#X connect 21 0 23 0;
#X connect 22 0 21 0;
#X connect 23 0 6 0;
#X connect 23 0 6 1;
#X connect 23 2 5 0;
#X restore 99 280 pd tapfieldplayer;
#N canvas 338 98 491 523 tapfieldplayer 0;
#X obj 28 19 inlet;
#X obj 23 477 outlet~;
#X obj 131 478 outlet~;
#X obj 62 290 list prepend playdiv;
#X obj 200 112 bng 15 250 50 0 empty empty empty 17 7 0 10 -262144
-1 -1;
#N canvas 1144 170 516 558 env_perc 0;
#X obj 198 412 outlet~;
#X obj 13 16 inlet;
#X obj 196 327 / 127;
#X obj 196 366 t a a;
#X obj 157 260 * 127;
#X msg 116 280 60;
#X obj 116 301 makenote 60 200;
#X obj 349 21 inlet;
#X text 340 43 volume (0-1);
#X text 59 15 trigger - start envelope;
#X msg 16 102 1;
#X obj 31 124 *;
#X obj 57 106 loadbang;
#X msg 57 125 1;
#X text 6 53 handle the volume scaling.;
#X text 249 287 setup a midi note (on then off);
#X text 325 355 calculate and send the env;
#X text 41 515 percussive envelope generator - cpm 2012;
#X obj 448 23 inlet;
#X text 214 222 calculate a changing length;
#X obj 16 80 t b b;
#X obj 117 209 t b a b;
#X obj 198 272 + 50;
#X floatatom 305 265 5 0 0 0 - - -;
#X obj 199 248 random 250;
#X obj 198 389 c_adsr 1 20 200 100 450;
#X connect 1 0 20 0;
#X connect 2 0 3 0;
#X connect 3 0 25 0;
#X connect 3 1 25 1;
#X connect 4 0 6 1;
#X connect 5 0 6 0;
#X connect 6 1 2 0;
#X connect 7 0 11 1;
#X connect 10 0 11 0;
#X connect 11 0 21 0;
#X connect 12 0 13 0;
#X connect 13 0 11 1;
#X connect 18 0 22 1;
#X connect 20 0 10 0;
#X connect 21 0 5 0;
#X connect 21 1 4 0;
#X connect 21 2 24 0;
#X connect 22 0 6 2;
#X connect 22 0 23 0;
#X connect 24 0 22 0;
#X connect 25 0 0 0;
#X restore 293 410 pd env_perc;
#N canvas 0 22 450 300 vol_scaler_ar 0;
#X obj 40 20 inlet~;
#X obj 167 25 inlet~;
#X obj 34 255 outlet~;
#X obj 177 252 outlet~;
#X obj 45 118 *~;
#X obj 168 116 *~;
#X obj 283 79 loadbang;
#X msg 282 122 1;
#X obj 255 27 inlet~;
#X obj 266 244 outlet~;
#X connect 0 0 4 0;
#X connect 1 0 5 0;
#X connect 4 0 2 0;
#X connect 5 0 3 0;
#X connect 6 0 7 0;
#X connect 7 0 5 1;
#X connect 7 0 4 1;
#X connect 8 0 5 1;
#X connect 8 0 4 1;
#X connect 8 0 9 0;
#X restore 147 369 pd vol_scaler_ar;
#X msg 49 170 sr 44100;
#X obj 49 147 loadbang;
#X obj 62 268 list prepend 150;
#X obj 109 201 random 5;
#X obj 62 247 list prepend;
#X obj 183 212 random 150;
#X obj 92 227 + 1;
#X obj 381 22 inlet;
#X obj 351 80 list prepend open;
#X obj 334 110 list trim;
#X obj 245 77 t b a b;
#X msg 260 115 info;
#X obj 71 335 s_cpmlooper_open cb1;
#X connect 0 0 17 0;
#X connect 3 0 19 0;
#X connect 4 0 10 0;
#X connect 4 0 12 0;
#X connect 5 0 6 2;
#X connect 6 0 1 0;
#X connect 6 1 2 0;
#X connect 7 0 19 0;
#X connect 8 0 7 0;
#X connect 9 0 3 0;
#X connect 10 0 13 0;
#X connect 11 0 9 0;
#X connect 12 0 11 1;
#X connect 13 0 11 0;
#X connect 14 0 15 0;
#X connect 15 0 16 0;
#X connect 16 0 19 0;
#X connect 17 0 4 0;
#X connect 17 1 5 1;
#X connect 17 2 18 0;
#X connect 18 0 19 0;
#X connect 19 0 6 0;
#X connect 19 0 6 1;
#X connect 19 2 5 0;
#X restore 126 306 pd tapfieldplayer;
#N canvas 1047 273 491 523 tapfieldplayer 0;
#X obj 28 19 inlet;
#X obj 23 477 outlet~;
#X obj 131 478 outlet~;
#X obj 62 290 list prepend playdiv;
#X obj 200 112 bng 15 250 50 0 empty empty empty 17 7 0 10 -262144
-1 -1;
#N canvas 1144 170 516 558 env_perc 0;
#X obj 198 412 outlet~;
#X obj 13 16 inlet;
#X obj 196 327 / 127;
#X obj 196 366 t a a;
#X obj 157 260 * 127;
#X msg 116 280 60;
#X obj 116 301 makenote 60 200;
#X obj 349 21 inlet;
#X text 340 43 volume (0-1);
#X text 59 15 trigger - start envelope;
#X msg 16 102 1;
#X obj 31 124 *;
#X obj 57 106 loadbang;
#X msg 57 125 1;
#X text 6 53 handle the volume scaling.;
#X text 249 287 setup a midi note (on then off);
#X text 325 355 calculate and send the env;
#X text 41 515 percussive envelope generator - cpm 2012;
#X obj 448 23 inlet;
#X text 214 222 calculate a changing length;
#X obj 16 80 t b b;
#X obj 117 209 t b a b;
#X obj 198 272 + 50;
#X floatatom 305 265 5 0 0 0 - - -;
#X obj 199 248 random 250;
#X obj 198 389 c_adsr 1 20 200 100 450;
#X connect 1 0 20 0;
#X connect 2 0 3 0;
#X connect 3 0 25 0;
#X connect 3 1 25 1;
#X connect 4 0 6 1;
#X connect 5 0 6 0;
#X connect 6 1 2 0;
#X connect 7 0 11 1;
#X connect 10 0 11 0;
#X connect 11 0 21 0;
#X connect 12 0 13 0;
#X connect 13 0 11 1;
#X connect 18 0 22 1;
#X connect 20 0 10 0;
#X connect 21 0 5 0;
#X connect 21 1 4 0;
#X connect 21 2 24 0;
#X connect 22 0 6 2;
#X connect 22 0 23 0;
#X connect 24 0 22 0;
#X connect 25 0 0 0;
#X restore 293 410 pd env_perc;
#N canvas 0 22 450 300 vol_scaler_ar 0;
#X obj 40 20 inlet~;
#X obj 167 25 inlet~;
#X obj 34 255 outlet~;
#X obj 177 252 outlet~;
#X obj 45 118 *~;
#X obj 168 116 *~;
#X obj 283 79 loadbang;
#X msg 282 122 1;
#X obj 255 27 inlet~;
#X obj 266 244 outlet~;
#X connect 0 0 4 0;
#X connect 1 0 5 0;
#X connect 4 0 2 0;
#X connect 5 0 3 0;
#X connect 6 0 7 0;
#X connect 7 0 5 1;
#X connect 7 0 4 1;
#X connect 8 0 5 1;
#X connect 8 0 4 1;
#X connect 8 0 9 0;
#X restore 147 369 pd vol_scaler_ar;
#X msg 49 170 sr 44100;
#X obj 49 147 loadbang;
#X obj 62 268 list prepend 150;
#X obj 109 201 random 5;
#X obj 62 247 list prepend;
#X obj 183 212 random 150;
#X obj 92 227 + 1;
#X obj 381 22 inlet;
#X obj 351 80 list prepend open;
#X obj 334 110 list trim;
#X obj 245 77 t b a b;
#X msg 250 130 info;
#X obj 71 335 s_cpmlooper_open cb1;
#X connect 0 0 17 0;
#X connect 3 0 19 0;
#X connect 4 0 10 0;
#X connect 4 0 12 0;
#X connect 5 0 6 2;
#X connect 6 0 1 0;
#X connect 6 1 2 0;
#X connect 7 0 19 0;
#X connect 8 0 7 0;
#X connect 9 0 3 0;
#X connect 10 0 13 0;
#X connect 11 0 9 0;
#X connect 12 0 11 1;
#X connect 13 0 11 0;
#X connect 14 0 15 0;
#X connect 15 0 16 0;
#X connect 16 0 19 0;
#X connect 17 0 4 0;
#X connect 17 1 5 1;
#X connect 17 2 18 0;
#X connect 18 0 19 0;
#X connect 19 0 6 0;
#X connect 19 0 6 1;
#X connect 19 2 5 0;
#X restore 158 334 pd tapfieldplayer;
#N canvas 642 116 491 523 tapfieldplayer 0;
#X obj 28 19 inlet;
#X obj 23 477 outlet~;
#X obj 131 478 outlet~;
#X obj 62 290 list prepend playdiv;
#X obj 200 112 bng 15 250 50 0 empty empty empty 17 7 0 10 -262144
-1 -1;
#N canvas 1144 170 516 558 env_perc 0;
#X obj 198 412 outlet~;
#X obj 13 16 inlet;
#X obj 196 327 / 127;
#X obj 196 366 t a a;
#X obj 157 260 * 127;
#X msg 116 280 60;
#X obj 116 301 makenote 60 200;
#X obj 349 21 inlet;
#X text 340 43 volume (0-1);
#X text 59 15 trigger - start envelope;
#X msg 16 102 1;
#X obj 31 124 *;
#X obj 57 106 loadbang;
#X msg 57 125 1;
#X text 6 53 handle the volume scaling.;
#X text 249 287 setup a midi note (on then off);
#X text 325 355 calculate and send the env;
#X text 41 515 percussive envelope generator - cpm 2012;
#X obj 448 23 inlet;
#X text 214 222 calculate a changing length;
#X obj 16 80 t b b;
#X obj 117 209 t b a b;
#X obj 198 272 + 50;
#X floatatom 305 265 5 0 0 0 - - -;
#X obj 199 248 random 250;
#X obj 198 389 c_adsr 1 20 200 100 450;
#X connect 1 0 20 0;
#X connect 2 0 3 0;
#X connect 3 0 25 0;
#X connect 3 1 25 1;
#X connect 4 0 6 1;
#X connect 5 0 6 0;
#X connect 6 1 2 0;
#X connect 7 0 11 1;
#X connect 10 0 11 0;
#X connect 11 0 21 0;
#X connect 12 0 13 0;
#X connect 13 0 11 1;
#X connect 18 0 22 1;
#X connect 20 0 10 0;
#X connect 21 0 5 0;
#X connect 21 1 4 0;
#X connect 21 2 24 0;
#X connect 22 0 6 2;
#X connect 22 0 23 0;
#X connect 24 0 22 0;
#X connect 25 0 0 0;
#X restore 293 410 pd env_perc;
#N canvas 0 22 450 300 vol_scaler_ar 0;
#X obj 40 20 inlet~;
#X obj 167 25 inlet~;
#X obj 34 255 outlet~;
#X obj 177 252 outlet~;
#X obj 45 118 *~;
#X obj 168 116 *~;
#X obj 283 79 loadbang;
#X msg 282 122 1;
#X obj 255 27 inlet~;
#X obj 266 244 outlet~;
#X connect 0 0 4 0;
#X connect 1 0 5 0;
#X connect 4 0 2 0;
#X connect 5 0 3 0;
#X connect 6 0 7 0;
#X connect 7 0 5 1;
#X connect 7 0 4 1;
#X connect 8 0 5 1;
#X connect 8 0 4 1;
#X connect 8 0 9 0;
#X restore 147 369 pd vol_scaler_ar;
#X msg 49 170 sr 44100;
#X obj 49 147 loadbang;
#X obj 62 268 list prepend 150;
#X obj 109 201 random 5;
#X obj 62 247 list prepend;
#X obj 183 212 random 150;
#X obj 92 227 + 1;
#X obj 381 22 inlet;
#X obj 351 80 list prepend open;
#X obj 334 110 list trim;
#X obj 245 77 t b a b;
#X msg 284 109 info;
#X obj 71 335 s_cpmlooper_open cb1;
#X connect 0 0 17 0;
#X connect 3 0 19 0;
#X connect 4 0 10 0;
#X connect 4 0 12 0;
#X connect 5 0 6 2;
#X connect 6 0 1 0;
#X connect 6 1 2 0;
#X connect 7 0 19 0;
#X connect 8 0 7 0;
#X connect 9 0 3 0;
#X connect 10 0 13 0;
#X connect 11 0 9 0;
#X connect 12 0 11 1;
#X connect 13 0 11 0;
#X connect 14 0 15 0;
#X connect 15 0 16 0;
#X connect 16 0 19 0;
#X connect 17 0 4 0;
#X connect 17 1 5 1;
#X connect 17 2 18 0;
#X connect 18 0 19 0;
#X connect 19 0 6 0;
#X connect 19 0 6 1;
#X connect 19 2 5 0;
#X restore 184 358 pd tapfieldplayer;
#X obj 140 488 r randomiseSounds;
#X obj 140 513 random 3;
#X obj 140 535 sel 0 1 2;
#X obj 174 659 t a;
#X obj 174 698 s newTapSound;
#X obj 200 232 r newTapSound;
#X obj 362 96 + 0.06;
#X obj 360 73 / 4000;
#X msg 569 98 stop;
#X text 218 12 pan started;
#X obj 82 433 loadbang;
#X obj 84 460 delay 10000;
#X msg 173 580 cb1;
#X msg 174 601 ab1;
#X msg 172 624 ff1;
#X obj 437 203 s_looper \$0-temple ainsliebirds2.wav;
#X obj 435 247 s_looper \$0-drainpipes cabinbirds2.wav;
#X obj 470 287 s_looper \$0-walkambience forestfloor2.wav;
#X connect 0 0 22 0;
#X connect 1 0 34 0;
#X connect 2 0 35 0;
#X connect 2 0 10 0;
#X connect 8 0 6 0;
#X connect 8 1 7 0;
#X connect 9 0 8 2;
#X connect 11 0 8 2;
#X connect 12 0 11 0;
#X connect 13 0 42 0;
#X connect 14 0 34 0;
#X connect 15 0 43 0;
#X connect 16 0 13 0;
#X connect 16 1 15 0;
#X connect 16 2 17 0;
#X connect 17 0 44 0;
#X connect 18 0 42 0;
#X connect 18 0 43 0;
#X connect 18 0 44 0;
#X connect 19 0 18 0;
#X connect 20 0 21 0;
#X connect 21 0 16 0;
#X connect 22 0 23 0;
#X connect 22 1 24 0;
#X connect 22 2 25 0;
#X connect 22 3 26 0;
#X connect 23 0 6 0;
#X connect 23 1 7 0;
#X connect 24 0 6 0;
#X connect 24 1 7 0;
#X connect 25 0 6 0;
#X connect 25 1 7 0;
#X connect 26 0 6 0;
#X connect 26 1 7 0;
#X connect 27 0 28 0;
#X connect 28 0 29 0;
#X connect 29 0 39 0;
#X connect 29 1 40 0;
#X connect 29 2 41 0;
#X connect 30 0 31 0;
#X connect 32 0 23 1;
#X connect 32 0 24 1;
#X connect 32 0 25 1;
#X connect 32 0 26 1;
#X connect 33 0 12 0;
#X connect 34 0 33 0;
#X connect 35 0 9 0;
#X connect 35 0 42 0;
#X connect 35 0 43 0;
#X connect 35 0 44 0;
#X connect 37 0 38 0;
#X connect 38 0 28 0;
#X connect 39 0 30 0;
#X connect 40 0 30 0;
#X connect 41 0 30 0;
#X connect 42 0 8 0;
#X connect 42 0 8 1;
#X connect 43 0 8 0;
#X connect 43 0 8 1;
#X connect 44 0 8 0;
#X connect 44 0 8 1;
#X restore 703 278 pd field_responder;
#X obj 465 163 r autoField;
#X obj 304 169 r autoCymbal;
#X obj 140 173 r autoBowl;
#X obj 558 54 s autoField;
#X obj 434 34 bng 15 250 50 0 empty empty empty 17 7 0 10 -262144 -1
-1;
#X obj 434 53 s randomiseSounds;
#X obj 773 207 r panstarted;
#X obj 635 332 g_vol2;
#X text 781 331 volume;
#X obj 724 334 loadbang;
#X obj 784 348 r fieldVolume;
#X msg 724 356 90;
#X connect 3 0 4 0;
#X connect 4 1 31 0;
#X connect 5 0 10 0;
#X connect 6 0 10 0;
#X connect 7 0 10 0;
#X connect 8 0 10 0;
#X connect 9 0 10 0;
#X connect 11 0 34 3;
#X connect 12 0 34 2;
#X connect 13 0 14 0;
#X connect 13 0 15 0;
#X connect 15 0 22 0;
#X connect 16 0 23 0;
#X connect 16 0 28 0;
#X connect 16 1 28 1;
#X connect 17 0 18 0;
#X connect 17 0 19 0;
#X connect 19 0 16 0;
#X connect 22 0 23 0;
#X connect 22 0 28 0;
#X connect 22 1 28 1;
#X connect 23 0 28 0;
#X connect 23 1 28 1;
#X connect 24 0 23 0;
#X connect 24 0 28 0;
#X connect 24 1 28 1;
#X connect 25 0 26 0;
#X connect 25 0 27 0;
#X connect 27 0 24 0;
#X connect 31 0 32 0;
#X connect 32 0 34 0;
#X connect 33 0 38 0;
#X connect 34 0 42 0;
#X connect 34 1 42 1;
#X connect 35 0 27 1;
#X connect 35 0 24 2;
#X connect 36 0 19 1;
#X connect 37 0 15 1;
#X connect 39 0 40 0;
#X connect 41 0 34 1;
#X connect 42 0 28 0;
#X connect 42 1 28 1;
#X connect 44 0 46 0;
#X connect 45 0 42 2;
#X connect 46 0 42 2;
