#N canvas 155 35 1519 809 10;
#X obj 493 610 outlet~;
#X obj 548 610 outlet~;
#X floatatom 1271 557 8 0 0 3 dur_in_smps - -;
#X floatatom 1197 557 8 0 0 3 dur_in_ms - -;
#X symbolatom 1122 557 10 0 0 3 table_name - -;
#X floatatom 1348 557 6 0 0 3 samplerate - -;
#X obj 45 49 inlet;
#X obj 1200 110 r \$0-open;
#X text 692 416 sample;
#X text 599 391 gain speed;
#X obj 492 272 f 0;
#X text 529 271 start time;
#X obj 517 116 metro 10000;
#X obj 44 507 s \$0-sample-loaded;
#X msg 44 483 1;
#X obj 1215 531 s \$0-duration;
#X obj 580 92 r \$0-duration;
#X obj 517 45 r \$0-loop;
#X obj 362 42 r \$0-play;
#X obj 637 520 r \$0-stop;
#X msg 637 544 stop;
#X obj 492 390 list prepend 1 1;
#X obj 46 348 r \$0-loop;
#X obj 46 373 select 0;
#X obj 46 402 s \$0-stop;
#X obj 1209 475 outlet;
#N canvas 5 79 907 511 calcdivs 0;
#X obj 111 45 r \$0-playdiv;
#X obj 136 195 r \$0-duration;
#X obj 111 218 swap;
#X obj 111 246 /;
#X obj 111 291 *;
#X obj 111 355 outlet;
#X obj 111 100 spigot;
#X obj 144 77 r \$0-sample-loaded;
#X obj 111 168 unpack 0 0 0;
#X obj 174 296 *;
#X obj 111 268 t a a;
#X obj 111 320 pack 0 0;
#X obj 111 135 t a a;
#X obj 289 190 list length;
#X obj 289 218 < 3;
#X text 285 249 if list doesn't have duration (i.e. is < 3) \, then
play only one division.;
#X connect 0 0 6 0;
#X connect 1 0 2 1;
#X connect 2 0 3 0;
#X connect 2 1 3 1;
#X connect 3 0 10 0;
#X connect 4 0 11 0;
#X connect 6 0 12 0;
#X connect 7 0 6 1;
#X connect 8 0 2 0;
#X connect 8 1 4 1;
#X connect 8 2 9 1;
#X connect 9 0 11 1;
#X connect 10 0 4 0;
#X connect 10 1 9 0;
#X connect 11 0 5 0;
#X connect 12 0 8 0;
#X connect 12 1 13 0;
#X connect 13 0 14 0;
#X connect 14 0 9 1;
#X restore 623 305 pd calcdivs;
#X obj 605 610 outlet;
#X obj 492 462 t a b;
#X msg 676 544 0;
#X obj 362 107 s \$0-metro;
#X msg 362 85 0;
#X obj 512 92 r \$0-metro;
#X obj 676 566 s \$0-metro;
#X msg 623 328 0;
#X obj 623 350 s \$0-metro;
#X obj 573 468 r \$0-sr;
#X msg 573 490 sr \$1;
#X obj 639 465 r \$0-fade;
#X obj 1310 111 r \$0-info;
#X obj 685 48 r \$0-startpos;
#X obj 685 204 *;
#X obj 700 179 r \$0-duration;
#X obj 492 417 list prepend \$1;
#X obj 364 612 loadbang;
#X obj 1340 328 / 1000;
#X obj 1313 285 r \$0-sr;
#X obj 1230 329 t a a;
#X obj 1230 308 f;
#X obj 1199 279 symbol \$1;
#X obj 1199 448 list;
#X obj 1199 252 t b a;
#X obj 1292 400 r \$0-sr;
#X obj 1199 422 pack s 0 0 44100;
#X obj 1200 164 symbol \$1;
#X obj 1199 506 unpack s f f f;
#X obj 1310 133 t b;
#X msg 639 488 fade 1 \$1;
#X obj 1199 228 arraysize;
#X obj 55 658 s \$0-play;
#X obj 55 638 bng 15 250 50 0 empty empty empty 17 7 0 10 -262144 -1
-1;
#X text 51 608 tests;
#X obj 1230 367 / 44.1;
#X obj 42 580 s \$0-sample-loaded;
#X obj 42 532 r \$0-open;
#X msg 42 556 0;
#X obj 44 459 r \$0-duration;
#X obj 139 658 tgl 15 0 empty empty empty 17 7 0 10 -262144 -1 -1 0
1;
#X obj 139 634 r \$0-sample-loaded;
#X text 44 702 requires arraysize external!;
#X obj 1313 306 t b f;
#X obj 1277 329 s \$0-info;
#X text 273 679 "playdiv <divs> <part> <duration in parts>" divides
the file into as many equal length parts as the <divs> number following
it specifies. Then it start playing part <part> and stops after <duration>
parts.;
#X obj 277 655 s \$0-playdiv;
#X msg 277 634 100 25 1;
#X obj 1200 185 t b a a;
#X obj 598 417 r \$0-tableName;
#X obj 1122 531 s \$0-tableName;
#X obj 364 654 s \$0-info;
#X obj 206 577 tgl 15 0 empty empty empty 17 7 0 10 -262144 -1 -1 1
1;
#X obj 206 555 r \$0-playing;
#X obj 650 635 s \$0-playing;
#X msg 553 552 0;
#X obj 553 574 s \$0-playing;
#X msg 650 614 1;
#X obj 517 70 t b a;
#X obj 560 70 s \$0-startpos;
#X obj 685 126 select 1;
#X msg 685 148 0;
#X obj 362 63 t b b a;
#X obj 401 85 s \$0-startpos;
#X obj 322 39 bng 15 250 50 0 empty empty empty 17 7 0 10 -262144 -1
-1;
#N canvas 874 397 450 300 changeBangsToZero 0;
#X obj 66 20 inlet;
#X obj 68 242 outlet;
#X obj 66 52 list length;
#X obj 66 84 == 0;
#X obj 66 116 select 1;
#X msg 66 148 0;
#X connect 0 0 2 0;
#X connect 2 0 3 0;
#X connect 3 0 4 0;
#X connect 4 0 5 0;
#X connect 5 0 1 0;
#X restore 747 125 pd changeBangsToZero;
#X obj 685 97 f;
#X obj 685 70 t a a;
#X text 44 9 looping file player - takes sample table as argument \,
can open new samples with "open" command;
#X obj 364 633 delay 500;
#N canvas 196 168 810 678 tableplayer 0;
#X obj 462 42 inlet;
#X obj 46 46 inlet;
#X obj 46 601 outlet~;
#X obj 46 471 tabread4~;
#X obj 46 311 list prepend set;
#X obj 46 341 list trim;
#X obj 61 441 vline~;
#N canvas 714 151 1064 786 trigger-sample 0;
#X text 20 165 Wait for the;
#X text 18 179 cutoff to finish;
#X text 83 435 set the upper line~ to start;
#X text 82 454 at the first sample and go;
#X text 81 475 forever (until the next trigger);
#X obj 122 202 t b b;
#X obj 299 645 s \$0-phase;
#X obj 122 315 s \$0-cutoff;
#X obj 122 52 inlet;
#X obj 149 142 s \$0-cutoff;
#X text 16 143 cut the sound off;
#X obj 122 266 f;
#X obj 264 52 inlet;
#X obj 122 82 t b b;
#X text 267 30 gain;
#X obj 314 52 inlet;
#X text 313 30 transpos;
#X obj 299 465 * 1e+07;
#X obj 299 435 f 1;
#X obj 341 233 moses 0;
#X obj 448 646 s \$0-phase;
#X obj 448 466 * 1e+07;
#X obj 448 436 f 1;
#X obj 463 406 abs;
#X obj 314 73 t a a;
#X obj 299 307 < 0;
#X obj 299 331 select 0 1;
#X obj 299 285 f;
#X obj 122 172 delay 2;
#X obj 416 52 inlet;
#X text 413 32 start;
#X obj 633 85 inlet;
#X obj 299 555 unpack 0 0;
#X obj 299 585 + 0;
#X obj 299 615 pack 0 0;
#X obj 416 112 * 22.05;
#X text 468 111 ms to samples;
#X text 671 84 duration;
#X obj 633 115 select 0;
#X obj 678 175 delay;
#X obj 855 45 inlet;
#X text 852 24 loops;
#X obj 736 270 outlet;
#X obj 678 145 - 2;
#X obj 736 235 delay 2;
#X obj 448 556 unpack 0 0;
#X obj 448 586 + 0;
#X obj 448 616 pack 0 0;
#X msg 633 145 stop;
#X obj 455 82 / 1000;
#X obj 455 52 r \$0-sr;
#X obj 448 496 pack 0 -2.205e+08;
#X msg 448 526 1 0 \, \$2 \$1;
#X obj 547 438 r \$0-sr;
#X obj 547 468 * -10000;
#X obj 392 435 r \$0-sr;
#X obj 392 465 * 10000;
#X obj 299 495 pack 0 2.205e+08;
#X msg 299 525 1 0 \, \$2 \$1;
#X obj 709 115 r \$0-stop;
#X obj 149 112 pack 0 2;
#X obj 678 365 s \$0-cutoff;
#X obj 678 335 pack 0 2;
#X obj 341 185 swap 1;
#X obj 341 210 /;
#X obj 167 82 t f f;
#X obj 416 134 t f f;
#X obj 748 82 t f f;
#X obj 678 205 t f f;
#X obj 167 52 r \$0-fade-out;
#X obj 122 290 pack 0 0;
#X obj 175 265 r \$0-fade-in;
#X obj 723 305 r \$0-fade-out;
#X obj 748 52 r \$0-fade-out;
#X obj 709 145 t a b;
#X connect 5 0 11 0;
#X connect 5 1 27 0;
#X connect 8 0 13 0;
#X connect 11 0 70 0;
#X connect 12 0 11 1;
#X connect 13 0 28 0;
#X connect 13 1 60 0;
#X connect 15 0 24 0;
#X connect 17 0 57 0;
#X connect 18 0 17 0;
#X connect 19 0 23 0;
#X connect 19 1 18 1;
#X connect 21 0 51 0;
#X connect 22 0 21 0;
#X connect 23 0 22 1;
#X connect 24 0 27 1;
#X connect 24 1 63 0;
#X connect 25 0 26 0;
#X connect 26 0 18 0;
#X connect 26 1 22 0;
#X connect 27 0 25 0;
#X connect 28 0 5 0;
#X connect 29 0 35 0;
#X connect 31 0 38 0;
#X connect 32 0 33 0;
#X connect 32 1 34 1;
#X connect 33 0 34 0;
#X connect 34 0 6 0;
#X connect 35 0 66 0;
#X connect 38 0 48 0;
#X connect 38 1 43 0;
#X connect 39 0 68 0;
#X connect 43 0 39 0;
#X connect 44 0 42 0;
#X connect 45 0 46 0;
#X connect 45 1 47 1;
#X connect 46 0 47 0;
#X connect 47 0 20 0;
#X connect 48 0 39 0;
#X connect 49 0 35 1;
#X connect 50 0 49 0;
#X connect 51 0 52 0;
#X connect 52 0 45 0;
#X connect 53 0 54 0;
#X connect 54 0 51 1;
#X connect 55 0 56 0;
#X connect 56 0 57 1;
#X connect 57 0 58 0;
#X connect 58 0 32 0;
#X connect 59 0 74 0;
#X connect 60 0 9 0;
#X connect 62 0 61 0;
#X connect 63 0 64 0;
#X connect 63 1 64 1;
#X connect 64 0 19 0;
#X connect 65 0 28 1;
#X connect 65 1 60 1;
#X connect 66 0 33 1;
#X connect 66 1 46 1;
#X connect 67 0 43 1;
#X connect 67 1 44 1;
#X connect 68 0 62 0;
#X connect 68 1 44 0;
#X connect 69 0 65 0;
#X connect 70 0 7 0;
#X connect 71 0 70 1;
#X connect 72 0 62 1;
#X connect 73 0 67 0;
#X connect 74 0 39 0;
#X connect 74 1 44 0;
#X restore 65 246 pd trigger-sample;
#X obj 61 511 r \$0-cutoff;
#X obj 46 571 *~;
#X obj 61 541 vline~;
#X obj 71 411 r \$0-phase;
#X text 89 38 IN: tablename gain transposition start(ms) duration(ms)
loop(0/1);
#X obj 46 156 list;
#N canvas 262 214 523 499 defaults 0;
#X msg 57 404 1;
#X obj 23 24 inlet;
#X obj 23 54 list split 1;
#X obj 57 84 t a b;
#X obj 57 144 unpack 1 2 3 4 5;
#X text 149 114 defaults: gain 1 \, trans 1 \, start 0 \, dur 0==all
\, loops 0;
#X msg 84 114 1 1 0 0 0;
#X obj 57 454 outlet gain;
#X obj 57 374 select 0;
#X msg 80 294 1;
#X obj 80 264 select 0;
#X obj 80 344 outlet transpos;
#X obj 103 234 outlet start;
#X obj 126 204 outlet duration;
#X obj 150 174 outlet loops;
#X connect 0 0 7 0;
#X connect 1 0 2 0;
#X connect 2 1 3 0;
#X connect 2 2 3 0;
#X connect 3 0 4 0;
#X connect 3 1 6 0;
#X connect 4 0 8 0;
#X connect 4 1 10 0;
#X connect 4 2 12 0;
#X connect 4 3 13 0;
#X connect 4 4 14 0;
#X connect 6 0 4 0;
#X connect 8 0 0 0;
#X connect 8 1 7 0;
#X connect 9 0 11 0;
#X connect 10 0 9 0;
#X connect 10 1 11 0;
#X restore 85 216 pd defaults;
#X obj 103 106 t b a;
#X obj 46 76 route bang;
#X obj 65 276 outlet;
#X text 110 276 bangs at end of duration \, if specified;
#X obj 46 186 t a a a;
#N canvas 0 22 190 276 sr 0;
#X obj 32 29 inlet;
#X obj 32 89 route sr;
#X obj 32 59 list trim;
#X obj 77 119 outlet;
#X obj 32 219 s \$0-sr;
#X connect 0 0 2 0;
#X connect 1 0 4 0;
#X connect 1 1 3 0;
#X connect 2 0 1 0;
#X restore 462 72 pd sr;
#N canvas 90 337 492 417 stop 0;
#X obj 80 49 inlet;
#X obj 80 74 list trim;
#X obj 147 131 outlet;
#X obj 80 101 route stop;
#X obj 155 272 s \$0-cutoff;
#X obj 80 128 b;
#X obj 80 301 s \$0-stop;
#X msg 80 268 stop;
#X obj 80 247 delay 2;
#X obj 155 249 pack 0 2;
#X obj 151 201 r \$0-fade-out;
#X obj 44 128 bng 15 250 50 0 empty empty empty 17 7 0 10 -262144 -1
-1;
#X connect 0 0 1 0;
#X connect 1 0 3 0;
#X connect 3 0 5 0;
#X connect 3 1 2 0;
#X connect 5 0 8 0;
#X connect 5 0 9 0;
#X connect 7 0 6 0;
#X connect 8 0 7 0;
#X connect 9 0 4 0;
#X connect 10 0 8 1;
#X connect 10 0 9 1;
#X connect 11 0 5 0;
#X restore 462 102 pd stop;
#X obj 61 381 r \$0-stop;
#N canvas 0 22 492 417 fade 0;
#X obj 80 49 inlet;
#X obj 80 74 list trim;
#X obj 147 131 outlet;
#X obj 80 101 route fade;
#X obj 80 238 max 0;
#X obj 80 264 s \$0-fade-in;
#X obj 80 167 unpack 0 0;
#X obj 172 238 max 0;
#X obj 172 264 s \$0-fade-out;
#X connect 0 0 1 0;
#X connect 1 0 3 0;
#X connect 3 0 6 0;
#X connect 3 1 2 0;
#X connect 4 0 5 0;
#X connect 6 0 4 0;
#X connect 6 1 7 0;
#X connect 7 0 8 0;
#X restore 462 132 pd fade;
#N canvas 0 22 256 258 calc 0;
#X obj 55 65 unpack 0 0;
#X obj 55 125 pack 0 0;
#X msg 55 155 set \$1 \$2;
#X msg 55 185 2.205e+08 1e+07;
#X msg 55 35 22050 1000;
#X floatatom 151 65 5 0 0 0 - - -;
#X obj 112 95 * 10000;
#X obj 55 95 * 10000;
#X connect 0 0 7 0;
#X connect 0 1 6 0;
#X connect 1 0 2 0;
#X connect 2 0 3 0;
#X connect 4 0 0 0;
#X connect 5 0 6 1;
#X connect 5 0 7 1;
#X connect 6 0 1 1;
#X connect 7 0 1 0;
#X restore 462 162 pd calc;
#X connect 0 0 20 0;
#X connect 1 0 16 0;
#X connect 3 0 9 0;
#X connect 4 0 5 0;
#X connect 5 0 3 0;
#X connect 6 0 3 0;
#X connect 7 0 17 0;
#X connect 8 0 10 0;
#X connect 9 0 2 0;
#X connect 10 0 9 1;
#X connect 11 0 6 0;
#X connect 13 0 19 0;
#X connect 14 0 7 1;
#X connect 14 1 7 2;
#X connect 14 2 7 3;
#X connect 14 3 7 4;
#X connect 14 4 7 5;
#X connect 15 0 13 0;
#X connect 15 1 13 1;
#X connect 16 0 13 0;
#X connect 16 1 15 0;
#X connect 19 0 4 0;
#X connect 19 1 7 0;
#X connect 19 2 14 0;
#X connect 20 0 21 0;
#X connect 21 0 23 0;
#X connect 22 0 6 0;
#X restore 492 520 pd tableplayer;
#X obj 45 72 dispatch \$0 open;
#X obj 46 96 dispatch \$0 loop;
#X obj 46 121 dispatch \$0 play;
#X obj 46 145 dispatch \$0 stop;
#X obj 46 167 dispatch \$0 playdiv;
#X obj 46 191 dispatch \$0 sr;
#X obj 45 214 dispatch \$0 fade;
#X obj 46 235 dispatch \$0 info;
#X obj 46 257 dispatch \$0 startpos;
#X obj 46 277 dispatch \$0 speed;
#X connect 6 0 98 0;
#X connect 7 0 54 0;
#X connect 10 0 21 0;
#X connect 12 0 10 0;
#X connect 14 0 13 0;
#X connect 16 0 12 1;
#X connect 17 0 85 0;
#X connect 18 0 89 0;
#X connect 19 0 20 0;
#X connect 19 0 29 0;
#X connect 20 0 82 0;
#X connect 20 0 97 1;
#X connect 21 0 43 0;
#X connect 22 0 23 0;
#X connect 23 0 24 0;
#X connect 26 0 21 0;
#X connect 26 0 34 0;
#X connect 28 0 97 0;
#X connect 28 1 27 0;
#X connect 28 1 84 0;
#X connect 29 0 33 0;
#X connect 31 0 30 0;
#X connect 32 0 12 0;
#X connect 34 0 35 0;
#X connect 36 0 37 0;
#X connect 37 0 97 1;
#X connect 38 0 57 0;
#X connect 39 0 56 0;
#X connect 40 0 94 0;
#X connect 41 0 10 1;
#X connect 42 0 41 1;
#X connect 43 0 28 0;
#X connect 44 0 96 0;
#X connect 45 0 62 1;
#X connect 46 0 70 0;
#X connect 47 0 62 0;
#X connect 47 1 53 2;
#X connect 48 0 47 0;
#X connect 49 0 53 0;
#X connect 50 0 25 0;
#X connect 50 0 55 0;
#X connect 51 0 49 0;
#X connect 51 1 48 0;
#X connect 52 0 53 3;
#X connect 53 0 50 0;
#X connect 54 0 75 0;
#X connect 55 0 4 0;
#X connect 55 0 77 0;
#X connect 55 1 3 0;
#X connect 55 1 15 0;
#X connect 55 2 2 0;
#X connect 55 3 5 0;
#X connect 56 0 54 0;
#X connect 57 0 97 1;
#X connect 58 0 51 0;
#X connect 60 0 59 0;
#X connect 62 0 53 1;
#X connect 64 0 65 0;
#X connect 65 0 63 0;
#X connect 66 0 14 0;
#X connect 68 0 67 0;
#X connect 70 0 71 0;
#X connect 70 1 45 0;
#X connect 74 0 73 0;
#X connect 75 0 58 0;
#X connect 75 1 49 1;
#X connect 75 2 58 1;
#X connect 76 0 43 1;
#X connect 80 0 79 0;
#X connect 82 0 83 0;
#X connect 84 0 81 0;
#X connect 85 0 12 0;
#X connect 85 1 86 0;
#X connect 87 0 88 0;
#X connect 87 1 41 0;
#X connect 88 0 41 0;
#X connect 89 0 31 0;
#X connect 89 1 10 0;
#X connect 89 2 90 0;
#X connect 91 0 89 0;
#X connect 92 0 41 0;
#X connect 93 0 87 0;
#X connect 94 0 92 0;
#X connect 94 1 93 0;
#X connect 96 0 78 0;
#X connect 97 0 0 0;
#X connect 97 0 1 0;
#X connect 97 1 82 0;
#X connect 98 0 99 0;
#X connect 99 0 100 0;
#X connect 100 0 101 0;
#X connect 101 0 102 0;
#X connect 102 0 103 0;
#X connect 103 0 104 0;
#X connect 104 0 105 0;
#X connect 105 0 106 0;
#X connect 106 0 107 0;
