#N canvas 135 116 1519 809 10;
#X obj 493 610 outlet~;
#X obj 548 610 outlet~;
#X floatatom 1271 557 8 0 0 3 dur_in_smps - -;
#X floatatom 1197 557 8 0 0 3 dur_in_ms - -;
#X symbolatom 1122 557 10 0 0 3 table_name - -;
#X floatatom 1348 557 6 0 0 3 samplerate - -;
#X obj 45 49 inlet;
#X obj 45 72 u_dispatch \$0 open;
#X obj 46 96 u_dispatch \$0 loop;
#X obj 46 121 u_dispatch \$0 play;
#X obj 46 145 u_dispatch \$0 stop;
#X obj 1200 110 r \$0-open;
#X text 692 416 sample;
#X text 599 391 gain speed;
#X obj 492 272 f 0;
#X text 529 271 start time;
#X obj 517 116 metro 10000;
#X obj 44 507 s \$0-sample-loaded;
#X msg 44 483 1;
#X obj 1215 531 s \$0-duration;
#X obj 580 92 r \$0-duration;
#X obj 517 45 r \$0-loop;
#X obj 362 42 r \$0-play;
#X obj 637 520 r \$0-stop;
#X msg 637 544 stop;
#X obj 492 390 list prepend 1 1;
#X obj 46 348 r \$0-loop;
#X obj 46 373 select 0;
#X obj 46 402 s \$0-stop;
#X obj 46 167 u_dispatch \$0 playdiv;
#X obj 1209 475 outlet;
#N canvas 5 79 907 511 calcdivs 0;
#X obj 111 45 r \$0-playdiv;
#X obj 136 195 r \$0-duration;
#X obj 111 218 swap;
#X obj 111 246 /;
#X obj 111 291 *;
#X obj 111 355 outlet;
#X obj 111 100 spigot;
#X obj 144 77 r \$0-sample-loaded;
#X obj 111 168 unpack 0 0 0;
#X obj 174 296 *;
#X obj 111 268 t a a;
#X obj 111 320 pack 0 0;
#X obj 111 135 t a a;
#X obj 289 190 list length;
#X obj 289 218 < 3;
#X text 285 249 if list doesn't have duration (i.e. is < 3) \, then
play only one division.;
#X connect 0 0 6 0;
#X connect 1 0 2 1;
#X connect 2 0 3 0;
#X connect 2 1 3 1;
#X connect 3 0 10 0;
#X connect 4 0 11 0;
#X connect 6 0 12 0;
#X connect 7 0 6 1;
#X connect 8 0 2 0;
#X connect 8 1 4 1;
#X connect 8 2 9 1;
#X connect 9 0 11 1;
#X connect 10 0 4 0;
#X connect 10 1 9 0;
#X connect 11 0 5 0;
#X connect 12 0 8 0;
#X connect 12 1 13 0;
#X connect 13 0 14 0;
#X connect 14 0 9 1;
#X restore 623 305 pd calcdivs;
#X obj 605 610 outlet;
#X obj 492 462 t a b;
#X msg 676 544 0;
#X obj 362 107 s \$0-metro;
#X msg 362 85 0;
#X obj 512 92 r \$0-metro;
#X obj 676 566 s \$0-metro;
#X msg 623 328 0;
#X obj 623 350 s \$0-metro;
#X obj 46 191 u_dispatch \$0 sr;
#X obj 46 214 u_dispatch \$0 fade;
#X obj 573 468 r \$0-sr;
#X msg 573 490 sr \$1;
#X obj 639 465 r \$0-fade;
#X obj 108 41 u_loader s_looper-\$1 \$0;
#X obj 46 235 u_dispatch \$0 info;
#X obj 1310 111 r \$0-info;
#X obj 46 257 u_dispatch \$0 startpos;
#X obj 46 283 u_dispatch \$0 speed;
#X obj 685 48 r \$0-startpos;
#X obj 685 204 *;
#X obj 700 179 r \$0-duration;
#X obj 492 417 list prepend \$1;
#X obj 364 634 loadbang;
#X obj 1340 328 / 1000;
#X obj 1313 285 r \$0-sr;
#X obj 1230 329 t a a;
#X obj 1230 308 f;
#X obj 1199 279 symbol \$1;
#X obj 1199 448 list;
#X obj 1199 252 t b a;
#X obj 1292 400 r \$0-sr;
#X obj 1199 422 pack s 0 0 44100;
#X obj 1200 164 symbol \$1;
#X obj 1199 506 unpack s f f f;
#X obj 1310 133 t b;
#X obj 492 528 s_playtable;
#X msg 639 488 fade 1 \$1;
#X obj 1199 228 arraysize;
#X obj 55 658 s \$0-play;
#X obj 55 638 bng 15 250 50 0 empty empty empty 17 7 0 10 -262144 -1
-1;
#X text 51 608 tests;
#X obj 1230 367 / 44.1;
#X obj 42 580 s \$0-sample-loaded;
#X obj 42 532 r \$0-open;
#X msg 42 556 0;
#X obj 44 459 r \$0-duration;
#X obj 139 658 tgl 15 0 empty empty empty 17 7 0 10 -262144 -1 -1 1
1;
#X obj 139 634 r \$0-sample-loaded;
#X text 44 702 requires arraysize external!;
#X obj 1313 306 t b f;
#X obj 1277 329 s \$0-info;
#X text 273 679 "playdiv <divs> <part> <duration in parts>" divides
the file into as many equal length parts as the <divs> number following
it specifies. Then it start playing part <part> and stops after <duration>
parts.;
#X obj 277 655 s \$0-playdiv;
#X msg 277 634 100 25 1;
#X obj 693 697 route open loop play stop playdiv sr fade info startpos
speed;
#X obj 1200 185 t b a a;
#X obj 598 417 r \$0-tableName;
#X obj 1122 531 s \$0-tableName;
#X obj 364 654 s \$0-info;
#X obj 206 577 tgl 15 0 empty empty empty 17 7 0 10 -262144 -1 -1 0
1;
#X obj 206 555 r \$0-playing;
#X obj 650 635 s \$0-playing;
#X msg 553 552 0;
#X obj 553 574 s \$0-playing;
#X msg 650 614 1;
#X obj 517 70 t b a;
#X obj 560 70 s \$0-startpos;
#X obj 685 126 select 1;
#X msg 685 148 0;
#X obj 362 63 t b b a;
#X obj 401 85 s \$0-startpos;
#X obj 322 39 bng 15 250 50 0 empty empty empty 17 7 0 10 -262144 -1
-1;
#X obj 389 271 print startTime;
#N canvas 874 397 450 300 changeBangsToZero 0;
#X obj 66 20 inlet;
#X obj 68 242 outlet;
#X obj 66 52 list length;
#X obj 66 84 == 0;
#X obj 66 116 select 1;
#X msg 66 148 0;
#X connect 0 0 2 0;
#X connect 2 0 3 0;
#X connect 3 0 4 0;
#X connect 4 0 5 0;
#X connect 5 0 1 0;
#X restore 747 125 pd changeBangsToZero;
#X obj 685 97 f;
#X obj 685 70 t a a;
#X text 44 9 looping file player - takes sample table as argument \,
can open new samples with "open" command;
#X connect 6 0 7 0;
#X connect 7 0 8 0;
#X connect 8 0 9 0;
#X connect 9 0 10 0;
#X connect 10 0 29 0;
#X connect 11 0 65 0;
#X connect 14 0 25 0;
#X connect 14 0 105 0;
#X connect 16 0 14 0;
#X connect 18 0 17 0;
#X connect 20 0 16 1;
#X connect 21 0 98 0;
#X connect 22 0 102 0;
#X connect 23 0 24 0;
#X connect 23 0 34 0;
#X connect 24 0 68 1;
#X connect 24 0 95 0;
#X connect 25 0 54 0;
#X connect 26 0 27 0;
#X connect 27 0 28 0;
#X connect 29 0 41 0;
#X connect 31 0 25 0;
#X connect 31 0 39 0;
#X connect 33 0 68 0;
#X connect 33 1 32 0;
#X connect 33 1 97 0;
#X connect 34 0 38 0;
#X connect 36 0 35 0;
#X connect 37 0 16 0;
#X connect 39 0 40 0;
#X connect 41 0 42 0;
#X connect 42 0 47 0;
#X connect 43 0 44 0;
#X connect 44 0 68 1;
#X connect 45 0 69 0;
#X connect 47 0 49 0;
#X connect 48 0 67 0;
#X connect 49 0 50 0;
#X connect 51 0 108 0;
#X connect 52 0 14 1;
#X connect 53 0 52 1;
#X connect 54 0 33 0;
#X connect 55 0 91 0;
#X connect 56 0 74 1;
#X connect 57 0 82 0;
#X connect 58 0 74 0;
#X connect 58 1 64 2;
#X connect 59 0 58 0;
#X connect 60 0 64 0;
#X connect 61 0 30 0;
#X connect 61 0 66 0;
#X connect 62 0 60 0;
#X connect 62 1 59 0;
#X connect 63 0 64 3;
#X connect 64 0 61 0;
#X connect 65 0 88 0;
#X connect 66 0 4 0;
#X connect 66 0 90 0;
#X connect 66 1 3 0;
#X connect 66 1 19 0;
#X connect 66 2 2 0;
#X connect 66 3 5 0;
#X connect 67 0 65 0;
#X connect 68 0 0 0;
#X connect 68 0 1 0;
#X connect 68 1 95 0;
#X connect 69 0 68 1;
#X connect 70 0 62 0;
#X connect 72 0 71 0;
#X connect 74 0 64 1;
#X connect 76 0 77 0;
#X connect 77 0 75 0;
#X connect 78 0 18 0;
#X connect 80 0 79 0;
#X connect 82 0 83 0;
#X connect 82 1 56 0;
#X connect 86 0 85 0;
#X connect 88 0 70 0;
#X connect 88 1 60 1;
#X connect 88 2 70 1;
#X connect 89 0 54 1;
#X connect 93 0 92 0;
#X connect 95 0 96 0;
#X connect 97 0 94 0;
#X connect 98 0 16 0;
#X connect 98 1 99 0;
#X connect 100 0 101 0;
#X connect 100 1 52 0;
#X connect 101 0 52 0;
#X connect 102 0 36 0;
#X connect 102 1 14 0;
#X connect 102 2 103 0;
#X connect 104 0 102 0;
#X connect 106 0 52 0;
#X connect 107 0 100 0;
#X connect 108 0 106 0;
#X connect 108 1 107 0;
